<mxfile host="app.diagrams.net" agent="Mozilla/5.0 (Windows NT 10.0; Win64; x64) AppleWebKit/537.36 (KHTML, like Gecko) Chrome/129.0.0.0 Safari/537.36 Edg/129.0.0.0" version="24.7.16">
  <diagram name="Page-1" id="o4o8IoqyDcCBq7xY7q5l">
    <mxGraphModel dx="1155" dy="659" grid="1" gridSize="10" guides="1" tooltips="1" connect="1" arrows="1" fold="1" page="1" pageScale="1" pageWidth="827" pageHeight="1169" math="0" shadow="0">
      <root>
        <mxCell id="0" />
        <mxCell id="1" parent="0" />
        <mxCell id="FeuaTyw9u-2rWH6Gll4J-1" value="" style="rounded=1;arcSize=10;dashed=1;strokeColor=#F59D56;fillColor=none;gradientColor=none;dashPattern=8 4;strokeWidth=2;" vertex="1" parent="1">
          <mxGeometry x="20" y="300" width="500" height="350" as="geometry" />
        </mxCell>
        <mxCell id="FeuaTyw9u-2rWH6Gll4J-2" value="Ali Cloud" style="text;html=1;align=center;verticalAlign=middle;whiteSpace=wrap;rounded=0;" vertex="1" parent="1">
          <mxGeometry x="230" y="300" width="60" height="30" as="geometry" />
        </mxCell>
        <mxCell id="FeuaTyw9u-2rWH6Gll4J-3" value="VPC" style="sketch=0;outlineConnect=0;gradientColor=none;html=1;whiteSpace=wrap;fontSize=12;fontStyle=0;shape=mxgraph.aws4.group;grIcon=mxgraph.aws4.group_vpc;strokeColor=#879196;fillColor=none;verticalAlign=top;align=left;spacingLeft=30;fontColor=#879196;dashed=0;" vertex="1" parent="1">
          <mxGeometry x="55" y="334" width="435" height="306" as="geometry" />
        </mxCell>
        <mxCell id="FeuaTyw9u-2rWH6Gll4J-6" value="" style="group" vertex="1" connectable="0" parent="1">
          <mxGeometry x="160" y="480" width="230" height="80" as="geometry" />
        </mxCell>
        <mxCell id="FeuaTyw9u-2rWH6Gll4J-7" value="" style="group" vertex="1" connectable="0" parent="FeuaTyw9u-2rWH6Gll4J-6">
          <mxGeometry width="230" height="60" as="geometry" />
        </mxCell>
        <mxCell id="FeuaTyw9u-2rWH6Gll4J-8" value="" style="rounded=0;whiteSpace=wrap;html=1;" vertex="1" parent="FeuaTyw9u-2rWH6Gll4J-7">
          <mxGeometry y="0.29850746268655026" width="230" height="59.70149253731344" as="geometry" />
        </mxCell>
        <mxCell id="FeuaTyw9u-2rWH6Gll4J-10" value="DataKit" style="rounded=0;whiteSpace=wrap;html=1;fillColor=#dae8fc;strokeColor=#6c8ebf;" vertex="1" parent="FeuaTyw9u-2rWH6Gll4J-7">
          <mxGeometry x="160" y="10" width="60" height="40" as="geometry" />
        </mxCell>
        <mxCell id="FeuaTyw9u-2rWH6Gll4J-11" value="ODDB Service" style="rounded=0;whiteSpace=wrap;html=1;" vertex="1" parent="FeuaTyw9u-2rWH6Gll4J-7">
          <mxGeometry x="29.849999999999994" y="10" width="80" height="40" as="geometry" />
        </mxCell>
        <mxCell id="FeuaTyw9u-2rWH6Gll4J-12" value="..." style="rounded=0;whiteSpace=wrap;html=1;" vertex="1" parent="FeuaTyw9u-2rWH6Gll4J-7">
          <mxGeometry x="120" y="10" width="20" height="40" as="geometry" />
        </mxCell>
        <mxCell id="FeuaTyw9u-2rWH6Gll4J-13" value="" style="shape=curlyBracket;whiteSpace=wrap;html=1;rounded=1;labelPosition=left;verticalLabelPosition=middle;align=right;verticalAlign=middle;rotation=-90;" vertex="1" parent="FeuaTyw9u-2rWH6Gll4J-6">
          <mxGeometry x="80" y="18" width="16" height="78" as="geometry" />
        </mxCell>
        <mxCell id="FeuaTyw9u-2rWH6Gll4J-14" style="edgeStyle=orthogonalEdgeStyle;rounded=0;orthogonalLoop=1;jettySize=auto;html=1;entryX=0.5;entryY=1;entryDx=0;entryDy=0;curved=1;" edge="1" parent="FeuaTyw9u-2rWH6Gll4J-6" source="FeuaTyw9u-2rWH6Gll4J-15" target="FeuaTyw9u-2rWH6Gll4J-10">
          <mxGeometry relative="1" as="geometry">
            <Array as="points">
              <mxPoint x="170" y="65" />
              <mxPoint x="170" y="70" />
              <mxPoint x="190" y="70" />
            </Array>
          </mxGeometry>
        </mxCell>
        <mxCell id="FeuaTyw9u-2rWH6Gll4J-15" value="Log、APM" style="text;html=1;align=center;verticalAlign=middle;whiteSpace=wrap;rounded=0;fontSize=10;fontColor=#0000FF;" vertex="1" parent="FeuaTyw9u-2rWH6Gll4J-6">
          <mxGeometry x="58" y="50" width="60" height="30" as="geometry" />
        </mxCell>
        <mxCell id="FeuaTyw9u-2rWH6Gll4J-16" value="" style="group" vertex="1" connectable="0" parent="1">
          <mxGeometry x="220" y="400" width="230" height="80" as="geometry" />
        </mxCell>
        <mxCell id="FeuaTyw9u-2rWH6Gll4J-17" value="" style="group" vertex="1" connectable="0" parent="FeuaTyw9u-2rWH6Gll4J-16">
          <mxGeometry width="230" height="60" as="geometry" />
        </mxCell>
        <mxCell id="FeuaTyw9u-2rWH6Gll4J-18" value="" style="rounded=0;whiteSpace=wrap;html=1;" vertex="1" parent="FeuaTyw9u-2rWH6Gll4J-17">
          <mxGeometry y="0.29850746268655026" width="230" height="59.70149253731344" as="geometry" />
        </mxCell>
        <mxCell id="FeuaTyw9u-2rWH6Gll4J-19" value="" style="aspect=fixed;sketch=0;html=1;dashed=0;whitespace=wrap;verticalLabelPosition=bottom;verticalAlign=top;fillColor=#2875E2;strokeColor=#ffffff;points=[[0.005,0.63,0],[0.1,0.2,0],[0.9,0.2,0],[0.5,0,0],[0.995,0.63,0],[0.72,0.99,0],[0.5,1,0],[0.28,0.99,0]];shape=mxgraph.kubernetes.icon2;kubernetesLabel=1;prIcon=node" vertex="1" parent="FeuaTyw9u-2rWH6Gll4J-17">
          <mxGeometry width="29.85074626865672" height="28.656716417910452" as="geometry" />
        </mxCell>
        <mxCell id="FeuaTyw9u-2rWH6Gll4J-20" value="DataKit" style="rounded=0;whiteSpace=wrap;html=1;fillColor=#dae8fc;strokeColor=#6c8ebf;" vertex="1" parent="FeuaTyw9u-2rWH6Gll4J-17">
          <mxGeometry x="160" y="10" width="60" height="40" as="geometry" />
        </mxCell>
        <mxCell id="FeuaTyw9u-2rWH6Gll4J-21" value="ODDB Service" style="rounded=0;whiteSpace=wrap;html=1;" vertex="1" parent="FeuaTyw9u-2rWH6Gll4J-17">
          <mxGeometry x="29.849999999999994" y="10" width="80" height="40" as="geometry" />
        </mxCell>
        <mxCell id="FeuaTyw9u-2rWH6Gll4J-22" value="..." style="rounded=0;whiteSpace=wrap;html=1;" vertex="1" parent="FeuaTyw9u-2rWH6Gll4J-17">
          <mxGeometry x="120" y="10" width="20" height="40" as="geometry" />
        </mxCell>
        <mxCell id="FeuaTyw9u-2rWH6Gll4J-23" value="" style="shape=curlyBracket;whiteSpace=wrap;html=1;rounded=1;labelPosition=left;verticalLabelPosition=middle;align=right;verticalAlign=middle;rotation=-90;" vertex="1" parent="FeuaTyw9u-2rWH6Gll4J-16">
          <mxGeometry x="80" y="18" width="16" height="78" as="geometry" />
        </mxCell>
        <mxCell id="FeuaTyw9u-2rWH6Gll4J-24" style="edgeStyle=orthogonalEdgeStyle;rounded=0;orthogonalLoop=1;jettySize=auto;html=1;entryX=0.5;entryY=1;entryDx=0;entryDy=0;curved=1;" edge="1" parent="FeuaTyw9u-2rWH6Gll4J-16" source="FeuaTyw9u-2rWH6Gll4J-25" target="FeuaTyw9u-2rWH6Gll4J-20">
          <mxGeometry relative="1" as="geometry">
            <Array as="points">
              <mxPoint x="170" y="65" />
              <mxPoint x="170" y="70" />
              <mxPoint x="190" y="70" />
            </Array>
          </mxGeometry>
        </mxCell>
        <mxCell id="FeuaTyw9u-2rWH6Gll4J-25" value="Log、APM" style="text;html=1;align=center;verticalAlign=middle;whiteSpace=wrap;rounded=0;fontSize=10;fontColor=#0000FF;" vertex="1" parent="FeuaTyw9u-2rWH6Gll4J-16">
          <mxGeometry x="58" y="50" width="60" height="30" as="geometry" />
        </mxCell>
        <mxCell id="FeuaTyw9u-2rWH6Gll4J-26" value="... ..." style="rounded=0;whiteSpace=wrap;html=1;" vertex="1" parent="1">
          <mxGeometry x="130" y="579.2" width="230" height="20" as="geometry" />
        </mxCell>
        <mxCell id="FeuaTyw9u-2rWH6Gll4J-28" value="" style="rounded=0;whiteSpace=wrap;html=1;" vertex="1" parent="1">
          <mxGeometry x="902.94" y="250.5" width="407.06" height="209.5" as="geometry" />
        </mxCell>
        <mxCell id="FeuaTyw9u-2rWH6Gll4J-29" style="edgeStyle=orthogonalEdgeStyle;rounded=0;orthogonalLoop=1;jettySize=auto;html=1;entryX=0;entryY=0.25;entryDx=0;entryDy=0;curved=1;" edge="1" parent="1" source="FeuaTyw9u-2rWH6Gll4J-30" target="FeuaTyw9u-2rWH6Gll4J-33">
          <mxGeometry relative="1" as="geometry" />
        </mxCell>
        <mxCell id="FeuaTyw9u-2rWH6Gll4J-30" value="WAF" style="sketch=0;points=[[0,0,0],[0.25,0,0],[0.5,0,0],[0.75,0,0],[1,0,0],[0,1,0],[0.25,1,0],[0.5,1,0],[0.75,1,0],[1,1,0],[0,0.25,0],[0,0.5,0],[0,0.75,0],[1,0.25,0],[1,0.5,0],[1,0.75,0]];outlineConnect=0;fontColor=#232F3E;fillColor=#DD344C;strokeColor=#ffffff;dashed=0;verticalLabelPosition=bottom;verticalAlign=top;align=center;html=1;fontSize=12;fontStyle=0;aspect=fixed;shape=mxgraph.aws4.resourceIcon;resIcon=mxgraph.aws4.waf;" vertex="1" parent="1">
          <mxGeometry x="918" y="330" width="48" height="48" as="geometry" />
        </mxCell>
        <mxCell id="FeuaTyw9u-2rWH6Gll4J-31" value="Ali Cloud" style="text;html=1;align=center;verticalAlign=middle;whiteSpace=wrap;rounded=0;" vertex="1" parent="1">
          <mxGeometry x="1072.18" y="250.5" width="60" height="30" as="geometry" />
        </mxCell>
        <mxCell id="FeuaTyw9u-2rWH6Gll4J-32" value="VPC" style="shape=mxgraph.ibm.box;prType=vpc;fontStyle=0;verticalAlign=top;align=left;spacingLeft=32;spacingTop=4;fillColor=none;rounded=0;whiteSpace=wrap;html=1;strokeColor=#4376BB;strokeWidth=2;dashed=0;container=1;spacing=-4;collapsible=0;expand=0;recursiveResize=0;" vertex="1" parent="1">
          <mxGeometry x="990" y="286" width="280" height="134" as="geometry" />
        </mxCell>
        <mxCell id="FeuaTyw9u-2rWH6Gll4J-33" value="" style="shape=image;verticalLabelPosition=bottom;verticalAlign=top;imageAspect=0;aspect=fixed;image=data:image/png,iVBORw0KGgoAAAANSUhEUgAAAWsAAADhCAYAAAAOGpRyAAAAGXRFWHRTb2Z0d2FyZQBBZG9iZSBJbWFnZVJlYWR5ccllPAAAAyhpVFh0WE1MOmNvbS5hZG9iZS54bXAAAAAAADw/eHBhY2tldCBiZWdpbj0i77u/IiBpZD0iVzVNME1wQ2VoaUh6cmVTek5UY3prYzlkIj8+IDx4OnhtcG1ldGEgeG1sbnM6eD0iYWRvYmU6bnM6bWV0YS8iIHg6eG1wdGs9IkFkb2JlIFhNUCBDb3JlIDkuMS1jMDAxIDc5LmE4ZDQ3NTM0OSwgMjAyMy8wMy8yMy0xMzowNTo0NSAgICAgICAgIj4gPHJkZjpSREYgeG1sbnM6cmRmPSJodHRwOi8vd3d3LnczLm9yZy8xOTk5LzAyLzIyLXJkZi1zeW50YXgtbnMjIj4gPHJkZjpEZXNjcmlwdGlvbiByZGY6YWJvdXQ9IiIgeG1sbnM6eG1wPSJodHRwOi8vbnMuYWRvYmUuY29tL3hhcC8xLjAvIiB4bWxuczp4bXBNTT0iaHR0cDovL25zLmFkb2JlLmNvbS94YXAvMS4wL21tLyIgeG1sbnM6c3RSZWY9Imh0dHA6Ly9ucy5hZG9iZS5jb20veGFwLzEuMC9zVHlwZS9SZXNvdXJjZVJlZiMiIHhtcDpDcmVhdG9yVG9vbD0iQWRvYmUgUGhvdG9zaG9wIDI0LjcgKE1hY2ludG9zaCkiIHhtcE1NOkluc3RhbmNlSUQ9InhtcC5paWQ6MTgyOTRGNzk0RUUyMTFFRUE3QkFDQTkwMkVGOEI2NzAiIHhtcE1NOkRvY3VtZW50SUQ9InhtcC5kaWQ6MTgyOTRGN0E0RUUyMTFFRUE3QkFDQTkwMkVGOEI2NzAiPiA8eG1wTU06RGVyaXZlZEZyb20gc3RSZWY6aW5zdGFuY2VJRD0ieG1wLmlpZDoxODI5NEY3NzRFRTIxMUVFQTdCQUNBOTAyRUY4QjY3MCIgc3RSZWY6ZG9jdW1lbnRJRD0ieG1wLmRpZDoxODI5NEY3ODRFRTIxMUVFQTdCQUNBOTAyRUY4QjY3MCIvPiA8L3JkZjpEZXNjcmlwdGlvbj4gPC9yZGY6UkRGPiA8L3g6eG1wbWV0YT4gPD94cGFja2V0IGVuZD0iciI/PljbZMMAAEHXSURBVHja7F0HvB1F1T/3tfReSCWBAIZu+RBBQQQEkS6KIJEP9cMPsSKC/UOwgQ1RAVEUUUBEkaaCIgiIhaaCAiG00EJIJz1579395r97Jnfu3pnd2XLfuy85//wm726b3Z2d+c+ZM2fOqQRBQAKBQCBobbRJEQgEAoGQtUAgEAiErAUCgUDIWiAQCARC1gKBQCAQshYIBAIha4FAIBAIWQsEAoFAyFogEAiErAUCgUAgZC0QCARC1gKBQCAQshYIBAKBkLVAIBAIWQsEAoFAyFogEAgEQtYCgUAgZC0QCAQCIWuBQCAQCFkLBAKBkLVAIBAIhKwFAoFAyFogEAgEQtYCgUAgELIWCAQCIWuBQCAQCFkLBAKBQMhaIBAIhKwFAoFAIGQtEAgEQtYCgUAgELIWCAQCgZC1QCAQCFkLBAKBQMhaIBAIBELWAoFAIGQtEAgEAiFrgUAgEAhZCwQCgZC1QCAQCISsBQKBQMhaIBAIBELWAoFAIBCyFggEAiFrgUAgEAhZCwQCgUDIWiAQCISsBQKBQCBkLRAIBELWAoFAIBCyFggEAoGQtUAgEAhZCwQCgUDIWiAQCARC1gKBQCBkLRAIBAIha4FAIBAQdRS6+txK/murKSnI8Nv21/57lEo7qN9bq7+TVRof/q3SJPV3jEpT+JxBKm1Q+9epv22b8khK5NhO+huV/3MqvU6l3pwleYBKb+I8dlVpmUr3q/R3lX6r0vwyKsqc6o50ezBGFdAGaTUCQU7cf//9/UTWrY8pKr1epb1U2lOlXVQaSZU6wqSG7QgjHPsb4XueHWNyXjdJpSuYrE1MVGk2+FWlC1Q6nf8KBIItVrJuTYCoDlXpLSrtq1KXlVD9CLsoEftgUY5rpql0HxN2EtpV+rZKO6v0/mIVJWhyMQgEgi2BrLdX6WCVDlfketAmVvEl5IGFYSr9zYOoTZys0mKVPpv3puuoTSY4BAIh69zYhyXGOaTV5wGTsu13nLBbR7rOgh+yZJ0Vn1HpEpWezXrhClVNngyG0AjqkRYjEPQTBqqwBJL+g0p3KSKd00CseX/bttP29y2mq3R8ges/kfkK9d4PBCPoCRpCw3PPgQoEgi2NrN+s0nVM0m8OCTSeyPK7LMLtf8I+puD1b8/zzW8MxtUVqaAw2qUIBFkxUNQgGPZ/TbHF8XWqDSK72iOu5nDts11DlKz2iOdFlnObpzbZruD1k1WaodLTvhcsCAbR9cF49QE2yARjefi3SutV+lgoeAxMbKvSmVRvrFphYeA7Kj0sn3nLI+uPqvRVVQ2GNEi3WYg4jUAHxuRjVwljqfHeZK3K5JKeybQo6KJJldXUK7J1GbhcpR35950qXUXRxO/8AfYe26j0v45jtwlZb1lkDRO88xQ/HFEnvWaVkm0SdtIkYxaVSN+Te/EVKVVa4vt+T1aH0KXVybRtZV2rETXs5d/ez8+A2dbzVVqT4ZpPqXRibN+7VHqHSt+iyB7+Rct1I1Ua1OQat4yipWO+WJtwbJVQ65ZD1qeqdGHqpKDL8sNHwvZVl7SWFP5UwesXeEtw6v3Ors6kl1UVma76iJ7WImtMMJ/VAs/xowxkfUQ4QrSjU6VPcr0HoV8UO/59ld7WxFqHfF9B0WraVuCkrWlgGtpiLmIFRWayWwRZX6A+00caqlLFISm7SNtHFTLwVCPXswSWFzf5vtFDwXC6ORhL29E6H6LenSIrlTJKC9LdtjzMhj73N9So113RAt9iPUvXPpig0i89zhsRCilEJ1Ck/tNrkyeyZN1somkFwOLpyQEsAP/MMnra7MgaH+kyxQsHOInalHqTJO00gvZRlbQmnubK8O6c13/VVwVyVzCKVgXt1FUJfMbGe7FkWDbgIuAMleaq9DuV/qjSzUQDyoYQKoxHKdt8w94UrVD9vEpfUmkeNboVKFuyNj8zVv7OsLScJyhakNVMDPS1V4M3dzXIqwiTLZVQsmgkUfMzVhPUIhUH8VbIvThm4EnX71XpIJW2ynjdV1R6xrfp3q3Iekylx1eJ2WxJdzanQwYgWUP6PociHy1bZ7z2ixTps1/q42dGB7GPZT8cgx3W5HtXaWBj3ebci+0R9tZt7Dgpa7KRNWU8ltRBtGbjh+S1LOPQzHup+X+CYXR7dQxNoo2t9u73ttiQ3QeYiIMpG3TC38hxPaTZBX38zC5/NUtI0G/ob8n6MEWMN6pUadBL24gzSJGeAwuJ+0wc9q8KZEqOa57i0ciFKZIOCP3LlEXPrcrgvOrW1K1+dCohp9paPdfTA3iovJ5VOvCUeLZKR3pcA90tFkJ903EcE1kveIoXAY/GJheQbge61CtknRMY0t60yYze9DvtImvXJKKvFB0n9HqCXq3Scopm96t1d2guiS/MeR18fBzOI5NjKfJnDRtqiMOPq3Q7RTa8/ioK9Z5/ro6m66vjaYfK2lYjamC+53mPqfRQAQkc338Y19Gy8aBKR6l0HEWmf0kOud7If12LoX5C0cIUX3yYpXyBkLU3dlM88LtNJJ2kgrARr9Zdtxm0miRtUx1h96h9mGV/QKVHKJq8epallJXUahrqIFVuuo9TKfhxMInaKxHLZRCj+orVfU3LQGLnFrxXpcmS5NUUTZpewsQdx5ksNRN3wGVAVjU1H00r42JknUduCWi2Sn/1flUfq48k6TnafkT9vUP9hQnYn6nvdYD5ZLsK1VgzaH5T+1d1BP0xGEMzaF1WlhrWYpL1iBLuNaUP3gfCAUweb+POZRzvv0Glr3tc35nxfl3U+uikgY1Jzcq4GFln1xyOUixwb2LjbovJM0mSdcWh6qgdhyng5SrdOWDM6/V7dfLXwbv0GqmJpP31YBo9Hwym6ZX1SpTL9HFvpci2NK+VBt4KtshJEW0wufVM02pmOaJIXlzKBI0R0lasJsmK11AUZKIn1r6R56MDiOygFjx1AEvVc1uTrCuZm+QNVvO8JMJOMtezk/V6dR+sAEMaOMb1VUOu6GSqCAx1T8Ug7iKSdkKn9TbFh9dVJtAiJYCNp+4sqxZBoj8rWAIjUsh6PhUz2ZvCQkKvpRaD4J6l/lWBQQ33apXG5rz+NIoW08QBk83P0sABRhsXizalf8n6PKpNmKQTSpqpXaPVR6D+fp8r5/Pe9+kxki0QL1Fj8F2i5GC5FcuxCjUGzDWfv8uQpgNDiqZYvu1U06ZmpZaU84+pLA6tQE4OXsGibndfLjM/IuX4YwXz/xVFi3dcBAEyX9PP7XEZZTPJjF9rw8tCc0LWWQabcLpzZp2EXDUIrOqpColL2TV1x29UOl3lNS/1SUDKGwyJtYvlrU7e1lJsLzVGU6+SO7K6Lbp63MLFRvhV/gqd/Ls3gVT1tW2xDiHIRspJOK6yiIaoB5kT7Bj2C2MUYfeRE6dXpxx/pGD+QxKODaOBP/lWzddFC4Ssaxinqss1m0jGJJzAQc5JqpBGS5BPqvS1ROkfBLiOzx9CUTxxLAIebKgd2mKE22v87Y3t64kRd3zbh+hN6dm8xldCDiydWUnN8sjKErqCHqWPBdvRelUwnX3T3ndNOT6vYP5JUvMqITWBkHUQmihVvPKKS6LJuusH1N8PkMtsTWsi1zIpI3zBCCbpIYaUvTH2N064VQtZ9zrI2SV9237bVCstBBD2z4OJ9GcaRZPzW47h+yCyT5otOYT416Sc8x9prgIh67xIp2DMah/YoMP1Je6q5Xf090ZFkEc6g9tWWY6CnzLEPYedwXDOZz0nG7EKyho/wwQNK/XeotJJFDlkSpOqkybWllJxnXV/4yge010mNUvQPEVG0tVJqUI/zeXvIym1hTPFRzo7D0jS0EnDZc5/UeT+ZxjvB4F3y0f3RTX0A5AZWFU5l4kaeC1FkdWT4CNVD+TudBiPMH5MkU31vlK7BH1L1snEemFoptdmJVwXuTeeV//7C2SzwdSSOxaMj6JoqmoXVnespDLiq2yxlSMDQ0Lzj4UcN1K07N3Elyl5AnGflLz/McCL8jbj9/4UhfO6wuO9BYKS1CBuqt9JtfJTnc7+gxR2CKxqkK+o68+2EvVGlpy3ZrUHrsGUUS/5+PXYmRMc3k9juh+aeGUlszqoFaDfB4EdXkg7uUcV4lJVPQb50TWc4z+aosoAQW1F9nBQ+6Xkf88AbmM/daiBTuAE/y2IDvOc0JGgeWTtJqkvOanCtr+aQt5VNXys0Gc3Lb3uNa5dx9s7URS+YL1BB/Z74p2Ppshb3RuYpBvfx8fOOwthlxXnsbiHwHN8yLpNZT5KUfZaVejjqDvtVlAwPZwiKWLWAP6Q3xTbP5MiR/dJmDdA29e7KT1QBGIwHsOjjy8KJQn6UrKeqlr20V7krM+JS9T1tte/Ucfft+leHXzdGiZqDL535YE31CDdTiKD7hTe6d6pjk9riDbTClJyFgLOr8Hd4PdpAzqssjQM7VXhFUcpZA09LCYBd0g4DxI0YieaI6QDUx4F46YnBmDbOpilah8M4k4U9RPRYa7fzHnnexQtQtqSpvXBYPC4+IVWkqy/7lR/2MjZRebROS+qdHjD8ZFMynj62Syzrab6hTY1zAoLqEJzGkJ62QIZxCXprBJ0vQOpbEQcZCz7Jlf1YypL6PxgOq1SBT3Mb6X3YR5SMCrrr1gSB96Scj701QMxWvZBOa7BTAsmIv9E0dzM3M2UuD64hQrHuxYh67KtQSCGHW+dJGzz2NdG8QnIo0PVh5m0f4wJXLUHM1HbcYbKb14dUduizORVc+TRXVc8iL4MCb0EjKQeemNlBb2gBD/PLOFH28cPxS0xaTsJZcX8C/qg5E2czh3RgzmuhaqoazMmrSdoy8QzRS4u2xrkkw5zO/c+lyUILD/a6J6GDkGPB8bx9nprM5tJFDqN+lp4ViXhmZOk6bTwX2VTRgviKFoSqkQyPDZ8s/wx5ZxpLGEMoZpbUBf+VNKrJHnR09b2ZeP3Kr2SokndFzNc91aKgicIBE0h606VPuxN0smmfP9W6ey6fe3GuaN5u9tKpAepfQ+rdERhm+40aTvvpOEAwv6V5bSbGrosy+ZmGBFW0iLUnOUhNWNN6e0lvcqghGPd1FwL/O9SFIPxIo9zoc+/WahJ0Ew1yNsVEQ2xqjhsEnRb4r7jrOoPnDOCm12PnVtCaaZCQ5222skjAz9ibYbE3aLAKx6oCHuhGpVnqCz4Oid5nLd7ynGY7JXlCW9owrENzhpVHqB3h64WnicfdpzzHyqg0xQIWftK1u9wSsxpi13qz0O4r0es6g8MmqGj7nVKc7dtOtdFxPE8KwnvRAmqkb5gyRbBkZWlof66O9tDwZl+UauG35VYz0clHF/bhwoqRCvCRJPN+djRQkmCZpN1h0oHJqo63JOI8e2PWFc2djJZm76da2nvsGG3UdpS9fT95CBpchB4M6amWgy702rai1bS4uwRl0A+ywrc+rqSXgGLdcYnHF/dx0WKGvxJivTZz/I+xGHcUibextGWidFFLi7LdO+AUEGRZFttmstVY9W2tq4Zfqkbo7tUWfWhLUEqDXnf6nS5GlCyDtoWEiyw7K+kSL2VlA5tgFuUvrqyin4fjA098GV8FRD2nTluiQASZYWjmkDJsf36yzQQliKw/4e/919sQaSFTmkWFZ/UXU7RmuUsWNJP7wxlbiFrkLLI+m1e59p8WdfbYH/KKoOAqLuoZn9dj18T9JGuKOm2eI0u872ipne+ZeDaJkeH1gLYW0nWg9VD5ehzMOz/oUonZ7zu6hIff+uU4y/0Y9G+pNKFW5iEuQ/VQkHnxXru5H6Z4ZqvUrT4qL+0GIXmRcpawXiog3wbHeOb2/Vhru5Wf+0TL11OMj2JfPR8lRhpt8U6gyAHmVcS1ULJZJyH2PsZ+1VW0C7BGiXuDqKx2Q0nTuFhfpao49eV+PizU44/ToK+RFmu1b6c4VxItZ8ZyIVWhs56B5Wmero3Tdq+yKmrbjeetpawUuOSBhWG2247WW+ddMwlXactcNmM0K56jn0VYb+kPkiOSoNu8p0ZzkdvUKanvZ08huWCgYWPU7JrgzjmDPQXLoOs90tc8JK0r0awq1T6tdVtqnspA5a1dyWa3fmuWkzbTiLhLBOMA1xvfSgtpeHUmzeILmyHr/A893s8zC0Lr0s5LgtQBhYwQXluhvNvC0fuxTB0cyDrvT2k5rTl5b9VaUODZNxhkHV9XoPDBTiUUYJPs/Vuo+RVjZuHJJ37m+9VWUlvoJW0JLtViAY80Pn4u3i6xPeFw6DdEo7DWuVh4b8BhXOJvCshRKS3F7zfR7lOnjMgG65BYrtkWrHYZpW4/+Ftox2lOamqjDbKYtud/MxlkXNfEXrQ3KwLZu8zT4KJoEEFStKs13uknHsf5Zvoai+hODEbA938gSTwBRwh/0+G8/+X0lfTugDV3b9U+jZFPtvhEXHH/nrxotYgCFe0U11Ldul4XdYa0TV/Tmxyjcu8T7PmG5/UtKks2mLPWkvXqfR3isypFlOkN/XvzAaOiuPJvBfeFoyhv9BIJarmDqD7IZW28zgP9QoWJCcmHE/CGHNAkHLuFTnbRmcJhI3Ac0dx+gZFfuBfFj5ORBbrj9u4HmUFvgcccb3Bcgyd6+z+ePGiZA1/B0MS5Z/A8btGmBiG3pNBftpN7d8pU4cQv2dQR8M3KbnqtCIktiUAC2L+J3iFYsmq+lUN4zPmQJZhJFQml1Jk+hfHrUzkvY46beqg35Vyn/eodATVnBqgHnyCoojsJzhqVht35ssLFuspxu9P8LNCEvxNieOpzWmqG25j9/Q8F2Zyh2fMH/7EYT78qoRzwHk/o/SgEi1H1jNSCTNNLRCEw4wgQxU7oq5qVhKk+nhQg0pMYg/CmIFnChWn4+PVWfSSGrVjNWN3vvZ/Ukzi9cGVPOyN4xluMGnYy3G9if1j2yuZOLEE/aomFilqYXx9wpRQeIgioMPV7Isl3Kd3M6mCWP33vQznQwBbl/Ee41KIWgOWJTdmlPJLqTBFyHrrTOZ5bdbjD1mtQNw4YBNJJ4XeSlruHqVzVToz1FZmVWFoybyLB8NZU4eR2jKVd78scf9BMJmupYlqOLMmL1HjLc/Ncd00lnTy4nM5rnmqj4r1HQnqHEj7t2TMz6XjX0+bBy7NUOv/mJHYNS6myEOiD7Boa/JAIuv89tW1fY9lcFsKK5A9rARG5BdFPdp/hxr0fjqs3ki+hK1JWvsoWcFyGNKqDGkNJx3dppP8ghLo+JNV45ltqUT8MRhDHw22p22UkFKgsmDIuFXOa79K6TpqG7Cc+a0tTD4fTjmedVXlSMf+NTTwcShFcSp9sLLgd4fv8Uc9ufNXA0kNMraBzCqJKg//Smk/d4ew4VYs51QSCLbSoBo5c9M1w3n/soTnx/52JnYMrLBAeAnVAvNWjQGnJtGqg1RNnyUBEzXW9Q3l3z3GwLXNIOgeI6+kdy0Z81X/2BsWU6/6l1ucP7vgY8Dp0f9lvOZbLUw+GDG8Pm1Ak2MIb8MKGthAq7smw/nQUxf1TY48fBZKwYEc9OgX9UVBFJWsRzdIskT+zv0jaXehVfp1S0t2tYBL2m405XtK/b6v7j6juaprYqzESHo4H1tAUUjY+VQL1qttwdsypna+tpuJfxHLBFWqBQUGQW/g1JvSKTUJ8GU9S42k1+Q3fDiD0qOXpwHLhLPou19Dem6jNZEmJWLMldU9rEs3v3CAk/VN5L8gBaqPu0q4JyaZz/M8F35d+sQ6pChZj8gUecVu27zCqjKxY1KqqiDJjWlEkr+uC2qg1QvjOXcdM6SDJV5cg+msh5ioocYYTPUm+Xmj0BA/A/LayNL9Eh64gqDXM2H3oxvWmeohZqmeaVW+QRi83X2thMdozygp/6jFCejElOO/4hrhC6iJbN7nqixaDFR8TKU3e577Lw/VUhZ8ilu8D24dCGTdmcn3RuM5sABb7+WPI1kv55asG38/an2WbpaupzE1QJLFmqV7VXqEJWn0780KY6pJu5vlql6yR7fpB+xSWaPIOpdkfaXHOVAq7UvpC1NOomSf1OZ5uzepKN5HkU6zCKDKe3XKOT/3boERdnbUzBdikvXghHzaPHihL2sj7PHP9zwXreWgJjyD7+gMrPF/zS6QjoLXB3VVJsgwVK9s6vmrDfvdutlsVGlbHBM4fBcHLMXO4L+IcfIiS9fu6S14kptM+aMxQpa+vKE5aIm/MVdEvX4lFYv+eCUrXbwxShVIDvuvt3pKRWiQWBT1HZakkgAp/b0Jx2EDe1lKHljwtDTn0BWkCJOwA/h5b8uRx+kpxzG2+kNsn8vF61ZGvbDhIYt6ZYOl/gRUb+I30ZHfeOob4D5ZfKC/mb9r2ZhHkRnnNzzOxbzM1XxNC5K1jhuehaQbe+o2ax9vl7C7Y92EnY6SMdx5pJPlvHXcr6821CWBleB/pjqWjrqVk7ZVlfEyqrmQXaf+Xu5U5zS+D3wUHJm4/CGdxv+Shawx9Lk9GKMGHT1Z65WPjTJK+jyjsqeRNUzaPs1fKY7BTPo+0vFROcl6sSFxId3Dnd91LMWmlf7glM4GsK2oPJc7ip5YGf+Ff78r4Vub+B4/r+05zYg+mCPY1nK/phGRAdhawQXAFM/zsQT8T018nm9SFCDiWI9zb+Fya0nJuicnSWsCawvN8VwqjEastBJz4PEMNZJ8hfUYZHYs9H2eJfvtuHT+yV3EoIYqPlJtBw3yiRltpi1hlBDte8jafblJd5m1A6CEziGpDD3wdzW0uF+lbbOtL7iWkmMeapxl/F7B45mjEs4/h9whuBDzcULK/eBK4CbK79c43tHvyemLFE3wpUWcOdGjzdkW+1xHbv/e6HRcjqpMXSrIb4GnBHo3FfdSlxewkZ7peS6sRL5U4r2H8zh6NP8exS1/vuf123Bd+HzrkXUlRzikoEEDNsopWTeS3MLEAb6PIiCgo8OINGb+7dzMlhhy/ioeZELp8BgPErvqnv+gcOW1jaSJGoMdVK1lkXWF2jBvYnYfy2R3+5Pq5IZX85B0fHR9MI36emzfaQ6yRqf2AZX+6sjrMvLTWf73Js1OPgxLGJOt9bg+bYEPZkey+vF2WS0gUvr9XIu/xiq7z1nKvFXQyR3u3p7n49x3GiQ7NEayUGCO5e0xfHwYj26GswQ/jH+PNq4fQsVmpj7HQscDrUbWK3Jc49K72cm6HsVcZ0a2zZjg2V39fXDT/VZTzRrVDDa0lj835tmfolowhOi5ztw0SIxHxKlS/QRm1WC7at272uNNui1iJloJ2Ie0NVEHnh2suu7JYAjdSOOUyLjel6gPIH//Hza3lfNZ8jV9Ovyaz3U9ws+ZiNJwAUvWRPnDK7kmuJ+k9GXdb2bJKwk3ZXyeaY6OEWUF218sZ7/cGBF8jVUZN7QYUe/CUnIWj3bjWfqfVhLJlgmMjnYqO9Ois7vLrOSQFGGl0bRuasM17iXnkHHX5XpSc3Vflc7dRJrrmaxd91zLfe5UJuq2sIs7TP3dw8u+Ojm4wVynGsRuITM9sYzTTfyWq+Mrfc0LLwsmhSZ7g/yoGs92o+fX+L5BnHGYC2iweOmYBKK+xpOoUW8+VkJ7GevYv9TjWh+3nllDmf0yQSS6iNVRcdXN9dQ8a5msQMvCEu9/U3bXo6/nNIMl6VYhauJ3Oam1yLpCCxInxFzH6snrFU5CC6zUeX8J7/0WRdafDS1ZN1KabXd0ziBuqoMUbbcrktBEbdprNwZVSPPlPddJ8jZJQjvOyhoLsoaXyNN38wvVQfRTRdaws/a4AGOP+8hv8cIyVmm4gOHjlSwVuobsmMSBtcA7PO6HOvPGktqLSyeeps4a4aEawhLnezI8C3xYuCLgYDSSFJXnr82Q/HIAo5EBH27LgUvJbVXTL2T9rJWUsy0O2c2qBnEraG4vJFXXln5/SbHQ57wXnER2zzNU/323IuchDasR3X5IXPs2qvRgw7F2cimIdwpLxWaO6NthRtOnXiqQs4MZtCzoUCyTqjHYkQnW1/eHT9SOOQlSJgIkQx+7r+f9jiK79UjSl3bB1fieSckTttmDU87JsmQZk2ofSjj+for8sdybINH+hZLcG/cNNlC2QAIDCWjJpXptLKoGeSbRF4hPHMQKvdJ6vMNJojdmesIgkby/yBLIJI+c3que52GVZtatgLQRdiVFJRL9viOcoPVfVLRb4gpNH3VIheb7LFi6PRhNV1Qn0ezK2rR4iyDoR8g/ajlWIRYxszqbpUZfkgFJ3uqonS50JdRo17L5NF/oPiqYKz3fCaaLn004/iNDLfPGBKl/dOa2VI/Vyd29N9Apbw7OpmzAHE5pi3WKStZzM65ArP+U0bmYKNijgUy1z43GMThmyx/P9bw2D3VVOkH9fYJJ+/08tNTmUJDKvhIO8dtUI2inYQ1StE2qbk+RsqPfP7Je1+4k0v0SSdpPDfWoTxkhEsykykb1YVOrx5oU4jCBhR6n56xpUHdAx51lldiHyN/dpQlMQB9INQe2Fe4cYKPsivv3SEJ+J1H6YhIsL08LZICO8Rqujy48HpNUMSMDn94ux0YHUn4nRKNLImsoGf9Imy9+WFZGRe2s0bti8mb3zJ+o/tPuQ5HOs34Q0eWsZheQr7/auO7b9jtQJByEUUFOsAYwaDM6DrMDiRN/e4pEX7MKWanSNc7RSGNZVsKGZXuXNHvz+gU6XlG8Z7etpeOCl+iC3um0c2VNks56NZMHOtCbE7LEIpyDM9YKzBLsygR/XMZr4Qnt4oTjK1PueytLpL1cgkNSCPexFJWFz4gjCViQAS98aSaHBzlUNMcmqJU+wGolk7QhqGAxyGIm03gVGJyihspqBIDO6sgWJduNXF8wWoHNGOZcFrAK51SP67H69IMUOXzqR7KOiOEhyjO7XE8qr3Q+nb0DuDyVrNNciVYbCLveRprIHR3dXPTSRvXuT81j5v3aDMLGEutsgXj3DhtqkgtXshB3fWcF4pnr+3mOb1tEP+6dHAYbaE+3BrmFieIPjuOH5Khdkxo6cD+AfL6fcs7TlG7P6+tY/hFyW4NgqfLUlOvnq/Q3y37oleE9EBYxh3k8xwnkXrwBC5BvJ6hjLmTpdp5B8EWC+GZd+o2OpKcE4dEHa3gUA+JdwuS7jAWKZfwtl/A5S/nvy2QP4jCe/FY2fotH7oXia5ZROKho7849CIpwGD9LT50UqiOxNIauXc3Di5NTCdumBnFtm/tcJG3aTldiZN2ecN+a/fSq0HQwbQTQ2BDdROzy711P4s9QhpiBu7atode1raT7qiNocsXLARyk0aMtEtwhlH2hh37e/VnqGutxPpZ7Y2LyDk9yOKGkxp/kVXAFl3mSe1eX0yasjPSdTMfI4xcp55zGI5UDEr4fllW/xKQCldM5OcojoOzrIdZwh/L2jNetZGJdYhDuYi7zlfwea/j3Mv4eS6nmjLgoTvckazDZpeRnveSWb4OggMf6O0MWgJXCw4VfuxJ+qGvrPnkHD6hWki2O9HA+UvEi63hQgN5Y6jFSt8fv3tjveKo604edowJ79WnjyjfSocJJ7pxquNa7MXAHcH7PNPpczza0U2VtFs9RWKX3Vf4Nc7WbCtYM+DBPcwQPnyBv40bri+coWlBRBI9SugncGCY+l1T7CrL73BjEBJykHkCNhBOnv3g+bycTlsvEEtK0dk41k/ItQkOw38NzXIeO/texWghrs6f473OcXuQOZTF/71XUv4Dg9cmUc27jTv0P99+f3/K4DLImLsBJGYb1Ntze0OtrNcRyrpbtVt3khalkHVBj9BZNqD0OwrYRtN7ujRG2eX01RthBHXm/zI03aHhPfU1jeR0ZSh1pRJ1O4LCM8J9wU8/xQO8IOnjjbjSjsj7rYOlPrMIoKxjxkSx52QDp76wcecJN6T0FRpdQOWDyzte5/57ciZke8nD/13mMMGxe9+7nkcRjGZ8bTp/ilif4Vh+mRjtvqHiyLFZZy53P8znKE/yBlZV3cf35D5N0q6OTO4xBjhHDp0zhrAhZl+Wf9ncNBJvdYT6GvNs3kA+e0O2iFJMiv/ci6ixxCtMCGLgCAcdN+dobjh8SKoBN078OQ2Vht9c+OdUveFLZ17Zvyhoc4VXtq2iPtlW0KMi8OOxNVG7U+BsskultTHRn5czzH0wsIPt7yc98bCVLsbCA2ZmyRWG5h+v4kVTTxX/T47oDY2MuPCe8L+6Rg6iBq4yObyGrEl9L9gU5v8mQ789YzfJ8zu+xkDu0M5hPBgJR69HNaZb932A++15ZNyomWd+1iSkOK2G4S6yfbNTrdLD2aZ1VutZOdDqsw39Tqg6oMeisTRUSl7J7YxK1Tap2qUFqv88gm19cFOFGp1Q9LRz6BQ7JOU0VUvuN5by7ZdY8qs7ggo3T6FMbtw112NX+bxh/Yon4Q2T3TlcEGPFsxRKSzdEtZv9foIxeCxPwbh72+3QSIPWPU2QRAlvzBQXvjcU9cDj0BbK5jKjhIIswtIYlSTzD49zx3EzJ5otbAtaweulvLFhYFyT1nxqkRtao4EspXxTqOHltzbqpGmnoyC1LneMBSB+3pkrVNh1ynKxtRJ3020XU9YR9pbr/HOu4pptqS94bcQWbFNpHBb6kjQYehA0z87jrkZ5hdOD63WmrykYfqxD/voDrXaWSafgFR0pdlE03vTkA7z2DO92+xmxDguxmol5NxYPSbm5AZwp3BJ9OOqkVyBrAaqjDU1ULQar6AdLGMVbpGvLzCkO9UA9Mnv2ygbiqDsLupUb9skt/bW5XHYRdJdcE420qHdggtbbztevI5Qtlx03SStxbX5BC1NRA7PClkc9joXqut63dmf7eO4qmtG3IXVWq1Sp1d3dTb28vtbW1UXt7e7ivo6MjTIXqoaUjQN5hf6PulbFDyFdM6h76/bq6uvrknrb31s8wePDg8N3LLFdBcRQh6zLtGq8ln1ng9DqMWX1YANQv4e3hQUY3Dzg6LCqUILQ+uNEhXSbrrF3uRW1+qeOuT+0ECdyitg9xri7UJona/K/SIFXXS+E207z4X9NcL9r3dyriWlbd9+COZXRL7ziaShsyydYgrJ6eHtqwYQN1dnbS2LFjaeTIkSGRIIFUHnvsMVq3bh0NGTJkE8Ga12clq/Xr14cdAQgT27g/OoNmE9fatWtp6NChNGrUKFq6dGndMzQbKEeUMe6J+6NsFy9eHL5z2R1h3o4M3xbfxhxR6Y66WR2b7rTN98e9snTgGzduDDtAfT7qcd7vWvQ7lEnWV7NOrQxXhbA9fW2jeMYDwh7WIHY0EOBN6pxjKNJ9V1LJOIN06ZzgM+2y6/dfptJ7rffWGlCimg6+EuuwgtSgqrX3qlhIvEbaFxVraUQHdCyn8StX0PKglwZVgsRGicqMBogKjsYJApsxYwZNnDiRRowYER5HpUVCpcf2gw8+SKtXrw6vi0vj2JfUOHBPkBUIH3mNHz+epk6dGpI/yOvFF1+kxx9/PNxuBnEhPxD1pEmTaPvttw/v89JLL9G8efM2dUJp98Tz413xLnhm345FEwnIedq0aTRhwgQaPXp0eE/cH8n3vfEMyA/3HjRoUOkjDrzfzJkzw2+pO5dVq1aF3x0dKvbr0Za+Tiff++Adka8eveG9USfw26xTeE/cM9TfqnfFfePlg7qLc1GfIGTo4+gEV6xYEZa57TrXaEcLDYXKskQ1CIBVUh/NKVHHcaYinEYXmXq593Im7XYLoUOFEND3VNrfOsFYTVCH2Oyvbb9deuro9+nq3G/VnW++v9tMj7izW6DyGGe8T71ah8hPXx2EovBwyutsv1Irs/cM3of+3TaGxpNbFYKGsnLlSlqzZg0NGzYsJE0QCKRpVHwcj9c3kMnLL78cJlR+3TjRwEB2CxYsCBs0GpUmerOBIk9g6623DhsVyArX6gaL9OSTT9ITTzwR5mEjLpyLfbpR699pRKGJGvfeeeedNxEe3h0N+p///Gd4fPjw4XX31MSM89GQ0aHpho93xjMmEQHeGY0f77rVVluF7w2JWpOVLtenn346JGyUm63skAeeF/tx/rhx48LtRYsWhfcvStq4hybGHXfcMSRrLe3q+oBvu2zZsvCe2AZpx1U62JdGdFpqR1mMGTMmJFNcpzuB+CgECXUOHSvuozt37Mc2SHrKlClh/UU54HlRJ3AflOv8+fOd9UmPJPS3hJCC74PvddVVV7UMWWM2fWFhoq49EpahP9hwTK9qXE72pd21dI5Kn89M1lULMZs21D2x82r53Km2P6h+P9ywYMZ8vl5KMpq8UZ1zuNPcMEjRWdf//SnVQlnlw3qi+yduR9+Z9Q4a0bueOoLeRL20bnyomKjoqPxosEmEpyu9qQbRw1WQ3fPPPx8mNHotqeI4juG6XXbZJWxYuA/up8kQ5+E4yBCEPXfu3E356ntrokJDRf5amtMdCxq967nRKU2fPp123XXX8N5I+r4gbDzfQw89FJICnkPnr6VL7MP1IFwtVeM9MRLAfU0i0MSHBEKaPHlyOFrBs+v95rMhLzwDSOWRRx4JtzVp6bxQ7vhOOulOFR0kngMdrym1ZiFwLVEj4fvgPVE39LcJ5S5WFeF7oHMDuWl9P+6HZ8R+SLMoaz0Si3cGSHh+dJooE5yjOwSbGkSXBY6hri5cuDDsLHB/5INRCgQN5INviG+lnwnPgG+DThACgJ4biD8TrkE+eB501prwL7jggpYhaz1BeHQJRA3MJ1sopEqNSMJJR1N33GgB8srQEiKgIy2LVNInG+O/bYtfemmxSl9V6Xyr1Ug3nz+aO5rlvL/RDPHD6vm+40XUNnJulLLhQS6fh8JKVL4vK6I7eftTSFEpjepZE0Y7T2qgeuiJRqrJq4iKAY0DFR3E8fDDD9OSJUvCe6AxgFx23333UGoBEbjyQMPUkiYavpYy0cgg9YD88FvrJnE+Gu5zzz0X6p9xzGyUIF1TotakZL4r8kcngecEWWLID4kPBIrGq9UX2KclSE1eIGskLRVqiRnnQ6UEEsA7QMrTHYDrvXVHBdLWRIhr8AyzZs0Ky9CUsvGOKCvkDdIGSWqVAsoY5a87MZf0r4kaz7zbbrttIuokrsH7mGqQUEfL0jSeAYSKhHy0qgj54z3wHdBZ4/3w3TS5ptUtnKO/K+oF6hg6QXwjVz6mAIDOH98J5+uOEPUC+e20007he+s5G/1el1xySUuR9cxwQit/xPM44J3unXUkosmwjX+vN7Zt5nrR3/1UOk79Plb9HZNK1r0pKTrnbpUuV+kX6v6rrCoT7f4F3i0G8z4IQasbJOy3qjx/m7iIJ2lfoyrEblXjC/X8varSfXLWHJo3eDJN27CUeitlraHKDhAIGhCGrWi8aEjbbbdd2FCwndQ4NTGbum+9T0vUephrkodWCSCBtLVUiL+4N8guqVPSnQ2gyVmraLQaxLw2TrBPPfXUJgKDhLbtttuG5IRycJG0jbD18N58d022Wm1iIySzvPDceFZIoiBskJtWW9ikXbwbVB8gLBBYEZ7Rk3ogakja6ERQBiBWkDTKJKnj8oF+D598zPKBdI3vBIEC16LzA1GjE8Z7myOJ/iXrPztf6Lch+ZRD1hRKm9CFB4bONy5VbqB6y0+XrjqgUeEkZJUOV2lvldfEBpvraoI+upceUOlmlW5U6T6rOZ8m63VMxvDNNYi3dafSbUwyVmm6eq5n656ZyL36Mk0NEv2eQpQ5enotD9Wh/HDGgXTVuDfQjmuf71ei1g0EjQmNAkRgToplaaA2SSlNIsd9QNbPPvts2ABB1Bgm+5CmzkeTs8974nyQAaRxrXvH6EHrZrO8r9kpxSdlfSRQPfzXhK3VQsuXLw87TpQLOktNYDpPjDhsqo9C1hAqf3x/lDs6P4yKyhjB5a2PWsKGSuTRRx8N6wRUPqinLgGiFckauuZ/lkjWwKfU3/MSSUsvMDH3NZK1qQYZHKpJqrSrSrPU/ikqQepWLVT9q9Jy9b8SKWm+SnNVekilZ6y67LjaYwNPFY5lct5AjT5DovPHq+2H1PbkuufNI1XXtuGR8P1F9NQPjptBn5p+Ak3ZuDxRT91fMEmk2Y1Sk5RWV2gpSg+lm3VPNHr9ntqioj/st23qAz3PADIGcWudM4gTE4kgak3iZd9fq0G0RUd/loU2C0WnBWlaj1Zc36kVyRq4jLJG+E2zfw7oEyp90xHxpSZ166XhtsUwNp21S7L2UYeYZK1JGsUCG4yhfGyDJf/omtnqL1ZeTrOStK9kXS9dw0XeeMoTBZ5NCp8fNpY+NuM9IUmP6VGSUT9L1a0CbSHiIyFvKdDqAG0Sp/ehc9kSFuTojhWdl1b/JHWoRci6ma3w/WR32J2PvKPf8K1xXuL5eCOo0EwHSc2uM1pKxl9EI4TnhZEGmduvQVT3e9XzTkuJvUipcRrNbTgmqiiizhq4mPX/6wd10jnT3kEbKx00rmeVELUBEJIQdT30ZCtGGqbOektZOalHPtouu5kjn2ZGZoCc+T6Ku2NMi3biJmr9F97cEH1jjpM4zUAAFUP6LbP+BIakrAM/DeGOoiemjmnEQeq5blAEObhuGXklw73tEdAXqDzOy8dEUX7fnnIoze+aQNuvX0g9lfYiJQSd+WSuY/A9/JRQW+mAG4EJ3NbgWGlhfz5MfAVqBkzmhNaDAAJPl/RIULDDmmw0jzRfoOxRbFpnFNPk/GEBjjBLb0iNHehH1BpwbgSHT6eQy9uXGaJLS9mmzXNWidtUp+g8upigtbvTKtkj1tUDku/nN71/GzWGBMtT56MyzT6pW6mpZa6ZtDfdMWxnmrlhkSLqXBL1TIrcRSKm5m5Ub5yIAAJ/pcj2+zbPBmxGSsE1H0o4H9Yv2vcyQs29M8Nzo9zi7kpRb+/IkAdcjX6cf0PMPCahg0LAgmuNbYR8+rLnffZnIWhvLm9TOIIHPKjVzie/EFIYk++b4R0PLbHThUdJ+FhHBPZXUX0wYtSVu/n5/p4j7xMpcluxN3dmGiDsf1HkghUGzz6BC9q5Hk409qF8f5CjfPEu78ktxTdRZ21KWC84fW9kJet6HS3+narS9+t0vrZJRVeUmB5yW3/YAgmYCqQ2QwXSY7mu3jRwhvp7iTr/4IZnszmbIiKnHpss21X6DNUitGQeA/1pzC70pYnH0IyNi6kr6FbZZh7OvYOJeLDHuYic8sWUc7aJEQOI/vUJ55sBMJ6JEVka4Hp1v9g++JjJEsQVgYNNj2uwb9/BcS78cP8tRtbv9rjHt8juOzmOl5jU09yWwo3nHhnecXfuCIsCQUbgU3u4x7l218Ju4RPuWn3iR2IUcrxHh6xdrpmAO7kxKddh9B/37f2fSy65ZNe8hdYXCskFYW9SSZBW8xE1MaNczBL8VC/JWL+1dvzfaaQuIw3iv6AeTBQO479DWZruoPoVjMmARDhX3fdgS1AAuw46fo47qADwqPr71bx66nkjptDXxx9BU7qX0aB8RA2J6xoLUW9wSC/nMGEnIa4cXuzR+Eyy8sVoC1EDh5A9+ocLcT/XcDz/Cce58SWdPrExL3YQ9SqiBh8AWzERT0jJM6tKoAyX5ugc/mgh6m5HXYHLiY965n27g6ht+U7iTnqGJ4fF68z+Kdf8r2XfoiIF11ezRz8hn1DsPqGr7CR8PEsyX/fo8RqlUjOyS4dB4jpgb4dBqKbUnI63hz13hb6r0uDEaDN5UkTaPaH6ozHCTHpS79/b2UbfGncYDap204jedYkrFBOGs/GIImiM8MA4nTvRPVkqNAEn+nu1gCrwxFjnookPX35OwbxRH3cp4RnfxCq/OHnvy+U/nVU5prQ+jLJFekFncxCrsPaNpTfy36IqkGFcN+qkTVYZbc115XUWSfrblB4841x+dhOIjfhKzncGq0//Y6mreZDktxp159SyK2pHHzYKSJevdQ67Ak+Ctf2OMCSUZIJQnwd91Pe9JSyXKWDVokrxw1sIoZ8q9AarRGz72xbrAJL019rKJToHLljn5/oiqtP51ZjX0RNdk2iHjQvyLnw5zaJSeLNluH0vf4/zYp34K/qZrP8nRq6DDYkYjftHBfO/hYoH5o3r08+ixsjjN1MtYovW3b+WifZOj3tAz35rk8sa5TrS2H6CydQcRd3DaXGsrpxq6bBMVWs8aO2RZLpLjqTrq3gEuMAYdWxH0RxA1u98IKvqnnZ0ruPKLrxiknV2u+DDLENAN3Gn213bJGVI1vAF8lRI2hVPV6PFMYIr0z1ho2mLEXUSaeeTqKPKX1GSQZ48VCewaOgoumb43jStG+t+cleFg2PD5GMTzkWE59+zdIOoJy8QUX+u8oA1halD/AE3aI3Xkc2DSzZMZcEhL0AmrzK2n7UQtYl4rMpTPO/TzgJPM3FCbHuORd1l1hUz5NlxCfnG9f2/jhG1CSguPxDb9/4MjGfC5c7h+GYUXkcfN45F3ADupaSYibZ9aZ7nGjuGoervR8IU3e9O1mlhqPhySe+zMw8d92Id1ri6wAREbl2zTZquOKRo274qXaL+fjMX1bE1zs+G70PrKl20VbAiL1lP4zIwdYZpIbfeQq2Dk43fsBRAODkzJuEQbpDXZMwXqpR/sfpH6y+vpmzWJRoHxbZ/kXL+H/h+uib6qi56Kc9CKn+M5Y7HVH/c4yEI7MY1NmnNRnwkl2a+ei0LCnqeC6P98R51F60VK7P/i7f/26KyGWWozxYy9xwxEMma+GWh//qrt/ojz/F6sn8tDwnPYKJGJXmApbsnuJEiwmN3gtSMDzuTh5iv4TTbKrUG5BdlJk7GvmQd0PVq/ym5v4C696NDp9LtQ3alqT3LikjVO8a2H6WBhZNiagRiaQ5RimYZUldWsu5kKfJsQ5r8pTH0ziKtz45t/83jmh/kKAuQzE/JvYwLpnQ/LlDW02O12Uc18xdOaZgVU3f4uLq4y5CAK1zOd3uMPi5m1RkEtF24Q74nJgBoXr2Sv9eAJWtd4Y5VpHNNovrDR8qmlGONeY1iaeUg45xuJutl3FirhmQ1nHvdkU5rjCTCtm2T5a/5Ox6uqx7QgR5d1KvhDUP3IFhtdoQuUHJrIkbGtm2Ruo+zSIcmzqT+CYCLRjbJ2L7O+H0D1WymYWaG2f8VGdWLqFOnGmQ9nhsvttcWKOOXmlQegyjZfHB6QbIe26T3wHObgboXkF8w35dSns+F+7hD05PjH4mpd0wVy/cosqkvBf25lviXdXoonwCwSeScFDA2yQRQS0JB2HB34iHRnpwwBNu2ocG4uC1NN00Jx81jbisRDN8OKVTq6r1f6BpL93fOosm9y4sQte2r2OoT7K/fk5DG9lP9O8z4jY76CmP7LKrXpZ6YI3/UHVhYnG7sexdFtuIPl1zGfYGiKpJmvUfgMRYlzzGrb6fzs5gwoicT92e+0CqQ+RSZcJaC/pKsTf3bS6q4/+T1KXwsMtIk6yIqlzRyDiz7g5gKhCxSdlx3TVap+hq1751lVO3fDn41rW4bTBOqK4uS9dLY9hgPCSaObs97VQsej8OcBMJcyt5Um2DbyKOsCcbQ9js5y+hb3DG8ibdhTjeHy87HYiBugz2lSW0R6oNTmJQrluF/UbO9+OhpaknPvZGffYKR71CP0Uu8HH1tzreh2vzX/tx6YU2CCdEzjPMuTGgTA5KsgTsoso+8XRFJp5dUneaJLk0aL5uc4+e4opD7qEDs29/lidJiUHS2qnMI/bVrNm3V+3JRogbmxrZ3t5yDZdQ/oE1essMgwto0DsPJ1Z51szvDc3WmHMdzmnpO6N7/kkD+u7DE9FS20t6Eo1iNUmGVyk8zdC6PW9Q3aTr0jzLB4n7Qv1/vKTlf1cR2/kJMBNnH4xqYHf4X1TzWX+RodU8bEu0w/l73puT9htj2Yxk583yqLYw5hOu4aRn1g5xCREuqQUzczQV8j1OSDsjf1jldb52NsCvknvwrtqDFrRqppY+wXqyUAeNdXTvSi+2jaWiwoYwcITWbkzmYxH2VpZHCMgKxNDEBOdk4tozc+uoVsa+TtijCtDRYk3Lu+3O0jZMLlNNKqvcJgaH0eM9rb45tH5dyPiazsIgEttnfIP+FPe1Ur/stG8tjhDjbGG248Ht+h2+y5OrCLbHtz6bke1ysHv6N6q2AfDphjJCeMTrQ24wWfBvVViuW5j6ulfxfzqPIrO+yVEINUqTtIqoNX81WJYHQfcjZXMVoXlPbXqrSgaFUXZZmT+X9j85taYgi6mp55s03WLaHJxCJORnzr4QvtMzSuF1EBasLc17hwZQvOid2n/M5fZuT3jal/hMLltPlFEVQyor5Kv05Nnx3RV3Fgp6LY/vO97xPr0cnVxSXxravTlATgKTN5f4/TqgrP7bUM1eg6NGW58jbxq7mv1Cfmes5LmtG4bWis+L3qk/yaS+iTZO2faXrPKqQrIReSbm+/lzoxHYiP+903mS9rH04Pd0+kUZV15b5vb4bK01YDcAk8lhuiINY5XCWhdjT7GHji0l+TpHZ1ETOF0NfOISK+xn5dUKeB8WIHQ3r45xO46S3r46R5HYFywqTrXl8vH8mtv0RVlm8lgkapqVv4U7K1MU+QH6mb8TlCZPaPThfM+1p3MuFL7Ka6PYEAv4O1ftQwXeEYyh4yBvFz7A7k+npsWuTzBHR4X4ltu8nXC+25+fGSOZdXEbmCOJJrld5YLN5X0vptvCbDVmDrM5lXdXtmdUgSeZ7xZ/LT5p2kXOcvButPnpVwrLZ/aig0xdrja4MCxfBdJYbpgsN5YDYvplcYZ/jBFv2L1ga7u0peV9gIZsf8vDzWW5on4sdvzIl31Mc0pENcdIvOsG7jvItCrrbIiEfT5F9ry5jqEtML39QLx2e4R4gSwgJ91JtybdOf+e/sxzX7s/fYRtWbbik+W4+bupxsbDqWuM9MNp6X+y6j7IAkITPWtQhZ/OI/TmuL6gbW8dGE28u8D2hArwvtg8jm6bEG2vlMCAPMAl8PvcEY5p0nUbmFU/itpnf+eis68n89+rv7BTdXCF0qDbSrlJQ/gpvWPNgMigeoBcSjM3zWxZPavtaCHsw1fsXNofDSTpaNNSjjG3oUe9POP+vse2zyD0pP8LyjDaAEC+0DM3T8HFLx0QsMY6K7XuChZ20gMlZ/Ve4FvPE1V5J3v7+wc/2gqX8bNdlscTBRN8vHWUUX0o/j0cLPoEOTHv8obFjX0tRO42IPcdmSdYaXyLM1gf0m8wScpp0nSW/NJWGr211Y1oWDmsrocT1BA1cYEUYnDLB+sO2knE5q0HQoM7MkC+kMMzcf4DJMz4sgJ4VDoiOtkhkcbyGCQwNdD41egKM42WWvOfzNcvIvcjhOeM8fa4LH2MJdj6nJz3LAmX7ah62L3IQ4RkUWbc845Hfw7FnTksunTYmArUvjkVUb8Lmkkhns+T7H8vxF7jj3Yka9ctpOJZHFDdRo6VRwGqQj/P9/+GZ571GnYmbol7LHT7K+6eWTsisF/8u0sCKBR+4q6CElu6vOp6OUumDKh3oPM/lsN8VnMD1N21fnuP1z7MyjNZeVcMmRFGPX2vbNvdnhbpufucE+tzI40Of1R3U9FiCUIVAf93FxIWOaFUJ+WqXoEOZTJ8i/5l86ESLmsEMoeb60PAFJPfteYSx0SCF/sT23BmuznjdNvxdu5gM55akShjL9XAM1Xy/PNefBVQkYG4r2FlnwfWc3hoOCQPaK1UN4iNh5+rmyL52Kt2meoU6B8tQL6D+WWbdV5jfJPJ4nhojcPiiDHvFdS1SvuuLSmpNwOM5r3uayou7aGJZho685TFQQ1cjhhpWnB1KbleIyRONeaxC0iYYk/9imPQFiiwYPr+ZE7VAICgZHQP8+X/H6ZVhbMPI4fhe3uHCKKfEnbRKsf7vEvX3BvX3xlDnTuHsnkAgEGxxZK3xrzBBBxy5Q4XEDfLeM3NOQSoB1/9tJOyFoa8TOF0KQlOiNVLNBAKBkHUjdAgpmFntoAhzn1C3HRE3ZsnbS71bhRao/GHYDztUmLDBJnWDVC2BQCBk7Y95nHR8tamKWDFjjeCZE9Vv+AeYQtGMOmxVYRes45vD7gKTOJhph58KmJ5hphumOQs5YVIEMe96pCoJBIJmopjpnkAgEAj6BG1SBAKBQCBkLRAIBAIha4FAIBCyFggEAoGQtUAgEAiErAUCgUDIWiAQCARC1gKBQCAQshYIBAIha4FAIBAIWQsEAoGQtUAgEAiErAUCgUAgZC0QCARC1gKBQCAQshYIBAKBkLVAIBAIWQsEAoFAyFogEAgEQtYCgUAgZC0QCAQCIWuBQCAQshYIBAKBkLVAIBAIhKwFAoFAyFogEAgEQtYCgUAgELIWCAQCIWuBQCAQCFkLBAKBkLVAIBAIhKwFAoFAIGQtEAgEQtYCgUAgELIWCAQCgZC1QCAQCFkLBAKBQMhaIBAIBELWAoFAIGQtEAgEAiFrgUAgELIWCAQCgZC1QCAQCISsBQKBQMhaIBAIBELWAoFAIBCyFggEAiFrgUAgEAhZCwQCgZC1QCAQCISsBQKBQCBkLRAIBELWAoFAIBCyFggEAoGQtUAgEAhZCwQCgUDIWiAQCARE/y/AAHnL6MiIrM6eAAAAAElFTkSuQmCC" vertex="1" parent="FeuaTyw9u-2rWH6Gll4J-32">
          <mxGeometry x="70" y="31.86" width="133" height="82.44" as="geometry" />
        </mxCell>
        <mxCell id="FeuaTyw9u-2rWH6Gll4J-45" value="Web" style="verticalLabelPosition=bottom;aspect=fixed;html=1;shape=mxgraph.salesforce.web;" vertex="1" parent="1">
          <mxGeometry x="690" y="680" width="60" height="47.400000000000006" as="geometry" />
        </mxCell>
        <mxCell id="FeuaTyw9u-2rWH6Gll4J-47" value="" style="shape=curlyBracket;whiteSpace=wrap;html=1;rounded=1;flipH=1;labelPosition=right;verticalLabelPosition=middle;align=left;verticalAlign=middle;rotation=-90;size=0.5;" vertex="1" parent="1">
          <mxGeometry x="710" y="640" width="20" height="50" as="geometry" />
        </mxCell>
        <mxCell id="FeuaTyw9u-2rWH6Gll4J-67" style="edgeStyle=orthogonalEdgeStyle;rounded=0;orthogonalLoop=1;jettySize=auto;html=1;curved=1;" edge="1" parent="1" source="FeuaTyw9u-2rWH6Gll4J-48" target="FeuaTyw9u-2rWH6Gll4J-30">
          <mxGeometry relative="1" as="geometry" />
        </mxCell>
        <mxCell id="FeuaTyw9u-2rWH6Gll4J-68" value="https://dataway.guance.kone.cn" style="edgeLabel;html=1;align=center;verticalAlign=middle;resizable=0;points=[];" vertex="1" connectable="0" parent="FeuaTyw9u-2rWH6Gll4J-67">
          <mxGeometry x="0.228" y="36" relative="1" as="geometry">
            <mxPoint as="offset" />
          </mxGeometry>
        </mxCell>
        <mxCell id="FeuaTyw9u-2rWH6Gll4J-48" value="RUM" style="text;html=1;align=center;verticalAlign=middle;whiteSpace=wrap;rounded=0;" vertex="1" parent="1">
          <mxGeometry x="690" y="630" width="60" height="30" as="geometry" />
        </mxCell>
        <mxCell id="FeuaTyw9u-2rWH6Gll4J-60" style="edgeStyle=orthogonalEdgeStyle;rounded=0;orthogonalLoop=1;jettySize=auto;html=1;entryX=0.497;entryY=0.97;entryDx=0;entryDy=0;entryPerimeter=0;" edge="1" parent="1" source="FeuaTyw9u-2rWH6Gll4J-56" target="FeuaTyw9u-2rWH6Gll4J-32">
          <mxGeometry relative="1" as="geometry" />
        </mxCell>
        <mxCell id="FeuaTyw9u-2rWH6Gll4J-62" value="&lt;span style=&quot;color: rgba(0, 0, 0, 0); font-family: monospace; font-size: 0px; text-align: start; background-color: rgb(251, 251, 251);&quot;&gt;%3CmxGraphModel%3E%3Croot%3E%3CmxCell%20id%3D%220%22%2F%3E%3CmxCell%20id%3D%221%22%20parent%3D%220%22%2F%3E%3CmxCell%20id%3D%222%22%20value%3D%22%22%20style%3D%22rounded%3D1%3BarcSize%3D10%3Bdashed%3D1%3BstrokeColor%3D%23F59D56%3BfillColor%3Dnone%3BgradientColor%3Dnone%3BdashPattern%3D8%204%3BstrokeWidth%3D2%3B%22%20vertex%3D%221%22%20parent%3D%221%22%3E%3CmxGeometry%20x%3D%2220%22%20y%3D%22300%22%20width%3D%22500%22%20height%3D%22350%22%20as%3D%22geometry%22%2F%3E%3C%2FmxCell%3E%3CmxCell%20id%3D%223%22%20value%3D%22Ali%20Cloud%22%20style%3D%22text%3Bhtml%3D1%3Balign%3Dcenter%3BverticalAlign%3Dmiddle%3BwhiteSpace%3Dwrap%3Brounded%3D0%3B%22%20vertex%3D%221%22%20parent%3D%221%22%3E%3CmxGeometry%20x%3D%22230%22%20y%3D%22300%22%20width%3D%2260%22%20height%3D%2230%22%20as%3D%22geometry%22%2F%3E%3C%2FmxCell%3E%3CmxCell%20id%3D%224%22%20value%3D%22VPC%22%20style%3D%22sketch%3D0%3BoutlineConnect%3D0%3BgradientColor%3Dnone%3Bhtml%3D1%3BwhiteSpace%3Dwrap%3BfontSize%3D12%3BfontStyle%3D0%3Bshape%3Dmxgraph.aws4.group%3BgrIcon%3Dmxgraph.aws4.group_vpc%3BstrokeColor%3D%23879196%3BfillColor%3Dnone%3BverticalAlign%3Dtop%3Balign%3Dleft%3BspacingLeft%3D30%3BfontColor%3D%23879196%3Bdashed%3D0%3B%22%20vertex%3D%221%22%20parent%3D%221%22%3E%3CmxGeometry%20x%3D%2255%22%20y%3D%22334%22%20width%3D%22435%22%20height%3D%22306%22%20as%3D%22geometry%22%2F%3E%3C%2FmxCell%3E%3CmxCell%20id%3D%225%22%20value%3D%22%22%20style%3D%22rounded%3D0%3BwhiteSpace%3Dwrap%3Bhtml%3D1%3B%22%20vertex%3D%221%22%20parent%3D%221%22%3E%3CmxGeometry%20x%3D%2280%22%20y%3D%22377%22%20width%3D%22390%22%20height%3D%22243%22%20as%3D%22geometry%22%2F%3E%3C%2FmxCell%3E%3CmxCell%20id%3D%226%22%20value%3D%22ACK%22%20style%3D%22aspect%3Dfixed%3Bsketch%3D0%3Bhtml%3D1%3Bdashed%3D0%3Bwhitespace%3Dwrap%3BverticalLabelPosition%3Dbottom%3BverticalAlign%3Dtop%3BfillColor%3D%232875E2%3BstrokeColor%3D%23ffffff%3Bpoints%3D%5B%5B0.005%2C0.63%2C0%5D%2C%5B0.1%2C0.2%2C0%5D%2C%5B0.9%2C0.2%2C0%5D%2C%5B0.5%2C0%2C0%5D%2C%5B0.995%2C0.63%2C0%5D%2C%5B0.72%2C0.99%2C0%5D%2C%5B0.5%2C1%2C0%5D%2C%5B0.28%2C0.99%2C0%5D%5D%3Bshape%3Dmxgraph.kubernetes.icon2%3BprIcon%3Dapi%22%20vertex%3D%221%22%20parent%3D%221%22%3E%3CmxGeometry%20x%3D%2270%22%20y%3D%22370%22%20width%3D%2250%22%20height%3D%2248%22%20as%3D%22geometry%22%2F%3E%3C%2FmxCell%3E%3CmxCell%20id%3D%227%22%20value%3D%22%22%20style%3D%22group%22%20vertex%3D%221%22%20connectable%3D%220%22%20parent%3D%221%22%3E%3CmxGeometry%20x%3D%22160%22%20y%3D%22480%22%20width%3D%22230%22%20height%3D%2280%22%20as%3D%22geometry%22%2F%3E%3C%2FmxCell%3E%3CmxCell%20id%3D%228%22%20value%3D%22%22%20style%3D%22group%22%20vertex%3D%221%22%20connectable%3D%220%22%20parent%3D%227%22%3E%3CmxGeometry%20width%3D%22230%22%20height%3D%2260%22%20as%3D%22geometry%22%2F%3E%3C%2FmxCell%3E%3CmxCell%20id%3D%229%22%20value%3D%22%22%20style%3D%22rounded%3D0%3BwhiteSpace%3Dwrap%3Bhtml%3D1%3B%22%20vertex%3D%221%22%20parent%3D%228%22%3E%3CmxGeometry%20y%3D%220.29850746268655026%22%20width%3D%22230%22%20height%3D%2259.70149253731344%22%20as%3D%22geometry%22%2F%3E%3C%2FmxCell%3E%3CmxCell%20id%3D%2210%22%20value%3D%22%22%20style%3D%22aspect%3Dfixed%3Bsketch%3D0%3Bhtml%3D1%3Bdashed%3D0%3Bwhitespace%3Dwrap%3BverticalLabelPosition%3Dbottom%3BverticalAlign%3Dtop%3BfillColor%3D%232875E2%3BstrokeColor%3D%23ffffff%3Bpoints%3D%5B%5B0.005%2C0.63%2C0%5D%2C%5B0.1%2C0.2%2C0%5D%2C%5B0.9%2C0.2%2C0%5D%2C%5B0.5%2C0%2C0%5D%2C%5B0.995%2C0.63%2C0%5D%2C%5B0.72%2C0.99%2C0%5D%2C%5B0.5%2C1%2C0%5D%2C%5B0.28%2C0.99%2C0%5D%5D%3Bshape%3Dmxgraph.kubernetes.icon2%3BkubernetesLabel%3D1%3BprIcon%3Dnode%22%20vertex%3D%221%22%20parent%3D%228%22%3E%3CmxGeometry%20width%3D%2229.85074626865672%22%20height%3D%2228.656716417910452%22%20as%3D%22geometry%22%2F%3E%3C%2FmxCell%3E%3CmxCell%20id%3D%2211%22%20value%3D%22DataKit%22%20style%3D%22rounded%3D0%3BwhiteSpace%3Dwrap%3Bhtml%3D1%3BfillColor%3D%23dae8fc%3BstrokeColor%3D%236c8ebf%3B%22%20vertex%3D%221%22%20parent%3D%228%22%3E%3CmxGeometry%20x%3D%22160%22%20y%3D%2210%22%20width%3D%2260%22%20height%3D%2240%22%20as%3D%22geometry%22%2F%3E%3C%2FmxCell%3E%3CmxCell%20id%3D%2212%22%20value%3D%22SP%20Service%22%20style%3D%22rounded%3D0%3BwhiteSpace%3Dwrap%3Bhtml%3D1%3B%22%20vertex%3D%221%22%20parent%3D%228%22%3E%3CmxGeometry%20x%3D%2229.849999999999994%22%20y%3D%2210%22%20width%3D%2280%22%20height%3D%2240%22%20as%3D%22geometry%22%2F%3E%3C%2FmxCell%3E%3CmxCell%20id%3D%2213%22%20value%3D%22...%22%20style%3D%22rounded%3D0%3BwhiteSpace%3Dwrap%3Bhtml%3D1%3B%22%20vertex%3D%221%22%20parent%3D%228%22%3E%3CmxGeometry%20x%3D%22120%22%20y%3D%2210%22%20width%3D%2220%22%20height%3D%2240%22%20as%3D%22geometry%22%2F%3E%3C%2FmxCell%3E%3CmxCell%20id%3D%2214%22%20value%3D%22%22%20style%3D%22shape%3DcurlyBracket%3BwhiteSpace%3Dwrap%3Bhtml%3D1%3Brounded%3D1%3BlabelPosition%3Dleft%3BverticalLabelPosition%3Dmiddle%3Balign%3Dright%3BverticalAlign%3Dmiddle%3Brotation%3D-90%3B%22%20vertex%3D%221%22%20parent%3D%227%22%3E%3CmxGeometry%20x%3D%2280%22%20y%3D%2218%22%20width%3D%2216%22%20height%3D%2278%22%20as%3D%22geometry%22%2F%3E%3C%2FmxCell%3E%3CmxCell%20id%3D%2215%22%20style%3D%22edgeStyle%3DorthogonalEdgeStyle%3Brounded%3D0%3BorthogonalLoop%3D1%3BjettySize%3Dauto%3Bhtml%3D1%3BentryX%3D0.5%3BentryY%3D1%3BentryDx%3D0%3BentryDy%3D0%3Bcurved%3D1%3B%22%20edge%3D%221%22%20parent%3D%227%22%20source%3D%2216%22%20target%3D%2211%22%3E%3CmxGeometry%20relative%3D%221%22%20as%3D%22geometry%22%3E%3CArray%20as%3D%22points%22%3E%3CmxPoint%20x%3D%22170%22%20y%3D%2265%22%2F%3E%3CmxPoint%20x%3D%22170%22%20y%3D%2270%22%2F%3E%3CmxPoint%20x%3D%22190%22%20y%3D%2270%22%2F%3E%3C%2FArray%3E%3C%2FmxGeometry%3E%3C%2FmxCell%3E%3CmxCell%20id%3D%2216%22%20value%3D%22Log%E3%80%81APM%22%20style%3D%22text%3Bhtml%3D1%3Balign%3Dcenter%3BverticalAlign%3Dmiddle%3BwhiteSpace%3Dwrap%3Brounded%3D0%3BfontSize%3D10%3BfontColor%3D%230000FF%3B%22%20vertex%3D%221%22%20parent%3D%227%22%3E%3CmxGeometry%20x%3D%2258%22%20y%3D%2250%22%20width%3D%2260%22%20height%3D%2230%22%20as%3D%22geometry%22%2F%3E%3C%2FmxCell%3E%3CmxCell%20id%3D%2217%22%20value%3D%22%22%20style%3D%22group%22%20vertex%3D%221%22%20connectable%3D%220%22%20parent%3D%221%22%3E%3CmxGeometry%20x%3D%22220%22%20y%3D%22400%22%20width%3D%22230%22%20height%3D%2280%22%20as%3D%22geometry%22%2F%3E%3C%2FmxCell%3E%3CmxCell%20id%3D%2218%22%20value%3D%22%22%20style%3D%22group%22%20vertex%3D%221%22%20connectable%3D%220%22%20parent%3D%2217%22%3E%3CmxGeometry%20width%3D%22230%22%20height%3D%2260%22%20as%3D%22geometry%22%2F%3E%3C%2FmxCell%3E%3CmxCell%20id%3D%2219%22%20value%3D%22%22%20style%3D%22rounded%3D0%3BwhiteSpace%3Dwrap%3Bhtml%3D1%3B%22%20vertex%3D%221%22%20parent%3D%2218%22%3E%3CmxGeometry%20y%3D%220.29850746268655026%22%20width%3D%22230%22%20height%3D%2259.70149253731344%22%20as%3D%22geometry%22%2F%3E%3C%2FmxCell%3E%3CmxCell%20id%3D%2220%22%20value%3D%22%22%20style%3D%22aspect%3Dfixed%3Bsketch%3D0%3Bhtml%3D1%3Bdashed%3D0%3Bwhitespace%3Dwrap%3BverticalLabelPosition%3Dbottom%3BverticalAlign%3Dtop%3BfillColor%3D%232875E2%3BstrokeColor%3D%23ffffff%3Bpoints%3D%5B%5B0.005%2C0.63%2C0%5D%2C%5B0.1%2C0.2%2C0%5D%2C%5B0.9%2C0.2%2C0%5D%2C%5B0.5%2C0%2C0%5D%2C%5B0.995%2C0.63%2C0%5D%2C%5B0.72%2C0.99%2C0%5D%2C%5B0.5%2C1%2C0%5D%2C%5B0.28%2C0.99%2C0%5D%5D%3Bshape%3Dmxgraph.kubernetes.icon2%3BkubernetesLabel%3D1%3BprIcon%3Dnode%22%20vertex%3D%221%22%20parent%3D%2218%22%3E%3CmxGeometry%20width%3D%2229.85074626865672%22%20height%3D%2228.656716417910452%22%20as%3D%22geometry%22%2F%3E%3C%2FmxCell%3E%3CmxCell%20id%3D%2221%22%20value%3D%22DataKit%22%20style%3D%22rounded%3D0%3BwhiteSpace%3Dwrap%3Bhtml%3D1%3BfillColor%3D%23dae8fc%3BstrokeColor%3D%236c8ebf%3B%22%20vertex%3D%221%22%20parent%3D%2218%22%3E%3CmxGeometry%20x%3D%22160%22%20y%3D%2210%22%20width%3D%2260%22%20height%3D%2240%22%20as%3D%22geometry%22%2F%3E%3C%2FmxCell%3E%3CmxCell%20id%3D%2222%22%20value%3D%22SP%20Service%22%20style%3D%22rounded%3D0%3BwhiteSpace%3Dwrap%3Bhtml%3D1%3B%22%20vertex%3D%221%22%20parent%3D%2218%22%3E%3CmxGeometry%20x%3D%2229.849999999999994%22%20y%3D%2210%22%20width%3D%2280%22%20height%3D%2240%22%20as%3D%22geometry%22%2F%3E%3C%2FmxCell%3E%3CmxCell%20id%3D%2223%22%20value%3D%22...%22%20style%3D%22rounded%3D0%3BwhiteSpace%3Dwrap%3Bhtml%3D1%3B%22%20vertex%3D%221%22%20parent%3D%2218%22%3E%3CmxGeometry%20x%3D%22120%22%20y%3D%2210%22%20width%3D%2220%22%20height%3D%2240%22%20as%3D%22geometry%22%2F%3E%3C%2FmxCell%3E%3CmxCell%20id%3D%2224%22%20value%3D%22%22%20style%3D%22shape%3DcurlyBracket%3BwhiteSpace%3Dwrap%3Bhtml%3D1%3Brounded%3D1%3BlabelPosition%3Dleft%3BverticalLabelPosition%3Dmiddle%3Balign%3Dright%3BverticalAlign%3Dmiddle%3Brotation%3D-90%3B%22%20vertex%3D%221%22%20parent%3D%2217%22%3E%3CmxGeometry%20x%3D%2280%22%20y%3D%2218%22%20width%3D%2216%22%20height%3D%2278%22%20as%3D%22geometry%22%2F%3E%3C%2FmxCell%3E%3CmxCell%20id%3D%2225%22%20style%3D%22edgeStyle%3DorthogonalEdgeStyle%3Brounded%3D0%3BorthogonalLoop%3D1%3BjettySize%3Dauto%3Bhtml%3D1%3BentryX%3D0.5%3BentryY%3D1%3BentryDx%3D0%3BentryDy%3D0%3Bcurved%3D1%3B%22%20edge%3D%221%22%20parent%3D%2217%22%20source%3D%2226%22%20target%3D%2221%22%3E%3CmxGeometry%20relative%3D%221%22%20as%3D%22geometry%22%3E%3CArray%20as%3D%22points%22%3E%3CmxPoint%20x%3D%22170%22%20y%3D%2265%22%2F%3E%3CmxPoint%20x%3D%22170%22%20y%3D%2270%22%2F%3E%3CmxPoint%20x%3D%22190%22%20y%3D%2270%22%2F%3E%3C%2FArray%3E%3C%2FmxGeometry%3E%3C%2FmxCell%3E%3CmxCell%20id%3D%2226%22%20value%3D%22Log%E3%80%81APM%22%20style%3D%22text%3Bhtml%3D1%3Balign%3Dcenter%3BverticalAlign%3Dmiddle%3BwhiteSpace%3Dwrap%3Brounded%3D0%3BfontSize%3D10%3BfontColor%3D%230000FF%3B%22%20vertex%3D%221%22%20parent%3D%2217%22%3E%3CmxGeometry%20x%3D%2258%22%20y%3D%2250%22%20width%3D%2260%22%20height%3D%2230%22%20as%3D%22geometry%22%2F%3E%3C%2FmxCell%3E%3CmxCell%20id%3D%2227%22%20value%3D%22...%20...%22%20style%3D%22rounded%3D0%3BwhiteSpace%3Dwrap%3Bhtml%3D1%3B%22%20vertex%3D%221%22%20parent%3D%221%22%3E%3CmxGeometry%20x%3D%22130%22%20y%3D%22579.2%22%20width%3D%22230%22%20height%3D%2220%22%20as%3D%22geometry%22%2F%3E%3C%2FmxCell%3E%3CmxCell%20id%3D%2228%22%20value%3D%22%22%20style%3D%22aspect%3Dfixed%3Bsketch%3D0%3Bhtml%3D1%3Bdashed%3D0%3Bwhitespace%3Dwrap%3BverticalLabelPosition%3Dbottom%3BverticalAlign%3Dtop%3BfillColor%3D%232875E2%3BstrokeColor%3D%23ffffff%3Bpoints%3D%5B%5B0.005%2C0.63%2C0%5D%2C%5B0.1%2C0.2%2C0%5D%2C%5B0.9%2C0.2%2C0%5D%2C%5B0.5%2C0%2C0%5D%2C%5B0.995%2C0.63%2C0%5D%2C%5B0.72%2C0.99%2C0%5D%2C%5B0.5%2C1%2C0%5D%2C%5B0.28%2C0.99%2C0%5D%5D%3Bshape%3Dmxgraph.kubernetes.icon2%3BprIcon%3Dnode%22%20vertex%3D%221%22%20parent%3D%221%22%3E%3CmxGeometry%20x%3D%22130%22%20y%3D%22580%22%20width%3D%2220%22%20height%3D%2219.2%22%20as%3D%22geometry%22%2F%3E%3C%2FmxCell%3E%3CmxCell%20id%3D%2229%22%20value%3D%22%22%20style%3D%22rounded%3D0%3BwhiteSpace%3Dwrap%3Bhtml%3D1%3B%22%20vertex%3D%221%22%20parent%3D%221%22%3E%3CmxGeometry%20x%3D%22902.94%22%20y%3D%22250.5%22%20width%3D%22480%22%20height%3D%22399.5%22%20as%3D%22geometry%22%2F%3E%3C%2FmxCell%3E%3CmxCell%20id%3D%2230%22%20style%3D%22edgeStyle%3DorthogonalEdgeStyle%3Brounded%3D0%3BorthogonalLoop%3D1%3BjettySize%3Dauto%3Bhtml%3D1%3BentryX%3D0%3BentryY%3D0.25%3BentryDx%3D0%3BentryDy%3D0%3Bcurved%3D1%3B%22%20edge%3D%221%22%20source%3D%2231%22%20target%3D%2234%22%20parent%3D%221%22%3E%3CmxGeometry%20relative%3D%221%22%20as%3D%22geometry%22%2F%3E%3C%2FmxCell%3E%3CmxCell%20id%3D%2231%22%20value%3D%22WAF%22%20style%3D%22sketch%3D0%3Bpoints%3D%5B%5B0%2C0%2C0%5D%2C%5B0.25%2C0%2C0%5D%2C%5B0.5%2C0%2C0%5D%2C%5B0.75%2C0%2C0%5D%2C%5B1%2C0%2C0%5D%2C%5B0%2C1%2C0%5D%2C%5B0.25%2C1%2C0%5D%2C%5B0.5%2C1%2C0%5D%2C%5B0.75%2C1%2C0%5D%2C%5B1%2C1%2C0%5D%2C%5B0%2C0.25%2C0%5D%2C%5B0%2C0.5%2C0%5D%2C%5B0%2C0.75%2C0%5D%2C%5B1%2C0.25%2C0%5D%2C%5B1%2C0.5%2C0%5D%2C%5B1%2C0.75%2C0%5D%5D%3BoutlineConnect%3D0%3BfontColor%3D%23232F3E%3BfillColor%3D%23DD344C%3BstrokeColor%3D%23ffffff%3Bdashed%3D0%3BverticalLabelPosition%3Dbottom%3BverticalAlign%3Dtop%3Balign%3Dcenter%3Bhtml%3D1%3BfontSize%3D12%3BfontStyle%3D0%3Baspect%3Dfixed%3Bshape%3Dmxgraph.aws4.resourceIcon%3BresIcon%3Dmxgraph.aws4.waf%3B%22%20vertex%3D%221%22%20parent%3D%221%22%3E%3CmxGeometry%20x%3D%22918%22%20y%3D%22330%22%20width%3D%2248%22%20height%3D%2248%22%20as%3D%22geometry%22%2F%3E%3C%2FmxCell%3E%3CmxCell%20id%3D%2232%22%20value%3D%22Ali%20Cloud%22%20style%3D%22text%3Bhtml%3D1%3Balign%3Dcenter%3BverticalAlign%3Dmiddle%3BwhiteSpace%3Dwrap%3Brounded%3D0%3B%22%20vertex%3D%221%22%20parent%3D%221%22%3E%3CmxGeometry%20x%3D%221122.94%22%20y%3D%22250.5%22%20width%3D%2260%22%20height%3D%2230%22%20as%3D%22geometry%22%2F%3E%3C%2FmxCell%3E%3CmxCell%20id%3D%2233%22%20value%3D%22VPC%22%20style%3D%22shape%3Dmxgraph.ibm.box%3BprType%3Dvpc%3BfontStyle%3D0%3BverticalAlign%3Dtop%3Balign%3Dleft%3BspacingLeft%3D32%3BspacingTop%3D4%3BfillColor%3Dnone%3Brounded%3D0%3BwhiteSpace%3Dwrap%3Bhtml%3D1%3BstrokeColor%3D%234376BB%3BstrokeWidth%3D2%3Bdashed%3D0%3Bcontainer%3D1%3Bspacing%3D-4%3Bcollapsible%3D0%3Bexpand%3D0%3BrecursiveResize%3D0%3B%22%20vertex%3D%221%22%20parent%3D%221%22%3E%3CmxGeometry%20x%3D%22990%22%20y%3D%22286%22%20width%3D%22380%22%20height%3D%22354%22%20as%3D%22geometry%22%2F%3E%3C%2FmxCell%3E%3CmxCell%20id%3D%2234%22%20value%3D%22%22%20style%3D%22shape%3Dimage%3BverticalLabelPosition%3Dbottom%3BverticalAlign%3Dtop%3BimageAspect%3D0%3Baspect%3Dfixed%3Bimage%3Ddata%3Aimage%2Fpng%2CiVBORw0KGgoAAAANSUhEUgAAAWsAAADhCAYAAAAOGpRyAAAAGXRFWHRTb2Z0d2FyZQBBZG9iZSBJbWFnZVJlYWR5ccllPAAAAyhpVFh0WE1MOmNvbS5hZG9iZS54bXAAAAAAADw%2FeHBhY2tldCBiZWdpbj0i77u%2FIiBpZD0iVzVNME1wQ2VoaUh6cmVTek5UY3prYzlkIj8%2BIDx4OnhtcG1ldGEgeG1sbnM6eD0iYWRvYmU6bnM6bWV0YS8iIHg6eG1wdGs9IkFkb2JlIFhNUCBDb3JlIDkuMS1jMDAxIDc5LmE4ZDQ3NTM0OSwgMjAyMy8wMy8yMy0xMzowNTo0NSAgICAgICAgIj4gPHJkZjpSREYgeG1sbnM6cmRmPSJodHRwOi8vd3d3LnczLm9yZy8xOTk5LzAyLzIyLXJkZi1zeW50YXgtbnMjIj4gPHJkZjpEZXNjcmlwdGlvbiByZGY6YWJvdXQ9IiIgeG1sbnM6eG1wPSJodHRwOi8vbnMuYWRvYmUuY29tL3hhcC8xLjAvIiB4bWxuczp4bXBNTT0iaHR0cDovL25zLmFkb2JlLmNvbS94YXAvMS4wL21tLyIgeG1sbnM6c3RSZWY9Imh0dHA6Ly9ucy5hZG9iZS5jb20veGFwLzEuMC9zVHlwZS9SZXNvdXJjZVJlZiMiIHhtcDpDcmVhdG9yVG9vbD0iQWRvYmUgUGhvdG9zaG9wIDI0LjcgKE1hY2ludG9zaCkiIHhtcE1NOkluc3RhbmNlSUQ9InhtcC5paWQ6MTgyOTRGNzk0RUUyMTFFRUE3QkFDQTkwMkVGOEI2NzAiIHhtcE1NOkRvY3VtZW50SUQ9InhtcC5kaWQ6MTgyOTRGN0E0RUUyMTFFRUE3QkFDQTkwMkVGOEI2NzAiPiA8eG1wTU06RGVyaXZlZEZyb20gc3RSZWY6aW5zdGFuY2VJRD0ieG1wLmlpZDoxODI5NEY3NzRFRTIxMUVFQTdCQUNBOTAyRUY4QjY3MCIgc3RSZWY6ZG9jdW1lbnRJRD0ieG1wLmRpZDoxODI5NEY3ODRFRTIxMUVFQTdCQUNBOTAyRUY4QjY3MCIvPiA8L3JkZjpEZXNjcmlwdGlvbj4gPC9yZGY6UkRGPiA8L3g6eG1wbWV0YT4gPD94cGFja2V0IGVuZD0iciI%2FPljbZMMAAEHXSURBVHja7F0HvB1F1T%2F3tfReSCWBAIZu%2BRBBQQQEkS6KIJEP9cMPsSKC%2FUOwgQ1RAVEUUUBEkaaCIgiIhaaCAiG00EJIJz1579395r97Jnfu3pnd2XLfuy85%2F%2Fwm726b3Z2d%2Bc%2BZM2fOqQRBQAKBQCBobbRJEQgEAoGQtUAgEAiErAUCgUDIWiAQCARC1gKBQCAQshYIBAIha4FAIBAIWQsEAoFAyFogEAiErAUCgUAgZC0QCARC1gKBQCAQshYIBAKBkLVAIBAIWQsEAoFAyFogEAgEQtYCgUAgZC0QCAQCIWuBQCAQCFkLBAKBkLVAIBAIhKwFAoFAyFogEAgEQtYCgUAgELIWCAQCIWuBQCAQCFkLBAKBQMhaIBAIhKwFAoFAIGQtEAgEQtYCgUAgELIWCAQCgZC1QCAQCFkLBAKBQMhaIBAIBELWAoFAIGQtEAgEAiFrgUAgEAhZCwQCgZC1QCAQCISsBQKBQMhaIBAIBELWAoFAIBCyFggEAiFrgUAgEAhZCwQCgUDIWiAQCISsBQKBQCBkLRAIBELWAoFAIBCyFggEAoGQtUAgEAhZCwQCgUDIWiAQCARC1gKBQCBkLRAIBAIha4FAIBAQdRS6%2BtxK%2FmurKSnI8Nv21%2F57lEo7qN9bq7%2BTVRof%2Fq3SJPV3jEpT%2BJxBKm1Q%2B9epv22b8khK5NhO%2BhuV%2F3MqvU6l3pwleYBKb%2BI8dlVpmUr3q%2FR3lX6r0vwyKsqc6o50ezBGFdAGaTUCQU7cf%2F%2F9%2FUTWrY8pKr1epb1U2lOlXVQaSZU6wqSG7QgjHPsb4XueHWNyXjdJpSuYrE1MVGk2%2BFWlC1Q6nf8KBIItVrJuTYCoDlXpLSrtq1KXlVD9CLsoEftgUY5rpql0HxN2EtpV%2BrZKO6v0%2FmIVJWhyMQgEgi2BrLdX6WCVDlfketAmVvEl5IGFYSr9zYOoTZys0mKVPpv3puuoTSY4BAIh69zYhyXGOaTV5wGTsu13nLBbR7rOgh%2ByZJ0Vn1HpEpWezXrhClVNngyG0AjqkRYjEPQTBqqwBJL%2Bg0p3KSKd00CseX%2FbttP29y2mq3R8ges%2FkfkK9d4PBCPoCRpCw3PPgQoEgi2NrN%2Bs0nVM0m8OCTSeyPK7LMLtf8I%2BpuD1b8%2FzzW8MxtUVqaAw2qUIBFkxUNQgGPZ%2FTbHF8XWqDSK72iOu5nDts11DlKz2iOdFlnObpzbZruD1k1WaodLTvhcsCAbR9cF49QE2yARjefi3SutV%2BlgoeAxMbKvSmVRvrFphYeA7Kj0sn3nLI%2BuPqvRVVQ2GNEi3WYg4jUAHxuRjVwljqfHeZK3K5JKeybQo6KJJldXUK7J1GbhcpR35950qXUXRxO%2F8AfYe26j0v45jtwlZb1lkDRO88xQ%2FHFEnvWaVkm0SdtIkYxaVSN%2BTe%2FEVKVVa4vt%2BT1aH0KXVybRtZV2rETXs5d%2Fez8%2BA2dbzVVqT4ZpPqXRibN%2B7VHqHSt%2BiyB7%2BRct1I1Ua1OQat4yipWO%2BWJtwbJVQ65ZD1qeqdGHqpKDL8sNHwvZVl7SWFP5UwesXeEtw6v3Ors6kl1UVma76iJ7WImtMMJ%2FVAs%2FxowxkfUQ4QrSjU6VPcr0HoV8UO%2F59ld7WxFqHfF9B0WraVuCkrWlgGtpiLmIFRWayWwRZX6A%2B00caqlLFISm7SNtHFTLwVCPXswSWFzf5vtFDwXC6ORhL29E6H6LenSIrlTJKC9LdtjzMhj73N9So113RAt9iPUvXPpig0i89zhsRCilEJ1Ck%2FtNrkyeyZN1somkFwOLpyQEsAP%2FMMnra7MgaH%2BkyxQsHOInalHqTJO00gvZRlbQmnubK8O6c13%2FVVwVyVzCKVgXt1FUJfMbGe7FkWDbgIuAMleaq9DuV%2FqjSzUQDyoYQKoxHKdt8w94UrVD9vEpfUmkeNboVKFuyNj8zVv7OsLScJyhakNVMDPS1V4M3dzXIqwiTLZVQsmgkUfMzVhPUIhUH8VbIvThm4EnX71XpIJW2ynjdV1R6xrfp3q3Iekylx1eJ2WxJdzanQwYgWUP6PociHy1bZ7z2ixTps1%2Fq42dGB7GPZT8cgx3W5HtXaWBj3ebci%2B0R9tZt7Dgpa7KRNWU8ltRBtGbjh%2BS1LOPQzHup%2BX%2BCYXR7dQxNoo2t9u73ttiQ3QeYiIMpG3TC38hxPaTZBX38zC5%2FNUtI0G%2Fob8n6MEWMN6pUadBL24gzSJGeAwuJ%2B0wc9q8KZEqOa57i0ciFKZIOCP3LlEXPrcrgvOrW1K1%2BdCohp9paPdfTA3iovJ5VOvCUeLZKR3pcA90tFkJ903EcE1kveIoXAY%2FGJheQbge61CtknRMY0t60yYze9DvtImvXJKKvFB0n9HqCXq3Scopm96t1d2guiS%2FMeR18fBzOI5NjKfJnDRtqiMOPq3Q7RTa8%2FioK9Z5%2Fro6m66vjaYfK2lYjamC%2B53mPqfRQAQkc338Y19Gy8aBKR6l0HEWmf0kOud7If12LoX5C0cIUX3yYpXyBkLU3dlM88LtNJJ2kgrARr9Zdtxm0miRtUx1h96h9mGV%2FQKVHKJq8epallJXUahrqIFVuuo9TKfhxMInaKxHLZRCj%2BorVfU3LQGLnFrxXpcmS5NUUTZpewsQdx5ksNRN3wGVAVjU1H00r42JknUduCWi2Sn%2F1flUfq48k6TnafkT9vUP9hQnYn6nvdYD5ZLsK1VgzaH5T%2B1d1BP0xGEMzaF1WlhrWYpL1iBLuNaUP3gfCAUweb%2BPOZRzvv0Glr3tc35nxfl3U%2BuikgY1Jzcq4GFln1xyOUixwb2LjbovJM0mSdcWh6qgdhyng5SrdOWDM6%2FV7dfLXwbv0GqmJpP31YBo9Hwym6ZX1SpTL9HFvpci2NK%2BVBt4KtshJEW0wufVM02pmOaJIXlzKBI0R0lasJsmK11AUZKIn1r6R56MDiOygFjx1AEvVc1uTrCuZm%2BQNVvO8JMJOMtezk%2FV6dR%2BsAEMaOMb1VUOu6GSqCAx1T8Ug7iKSdkKn9TbFh9dVJtAiJYCNp%2B4sqxZBoj8rWAIjUsh6PhUz2ZvCQkKvpRaD4J6l%2FlWBQQ33apXG5rz%2BNIoW08QBk83P0sABRhsXizalf8n6PKpNmKQTSpqpXaPVR6D%2Bfp8r5%2FPe9%2Bkxki0QL1Fj8F2i5GC5FcuxCjUGzDWfv8uQpgNDiqZYvu1U06ZmpZaU84%2BpLA6tQE4OXsGibndfLjM%2FIuX4YwXz%2FxVFi3dcBAEyX9PP7XEZZTPJjF9rw8tCc0LWWQabcLpzZp2EXDUIrOqpColL2TV1x29UOl3lNS%2F1SUDKGwyJtYvlrU7e1lJsLzVGU6%2BSO7K6Lbp63MLFRvhV%2Fgqd%2FLs3gVT1tW2xDiHIRspJOK6yiIaoB5kT7Bj2C2MUYfeRE6dXpxx%2FpGD%2BQxKODaOBP%2FlWzddFC4Ssaxinqss1m0jGJJzAQc5JqpBGS5BPqvS1ROkfBLiOzx9CUTxxLAIebKgd2mKE22v87Y3t64kRd3zbh%2BhN6dm8xldCDiydWUnN8sjKErqCHqWPBdvRelUwnX3T3ndNOT6vYP5JUvMqITWBkHUQmihVvPKKS6LJuusH1N8PkMtsTWsi1zIpI3zBCCbpIYaUvTH2N064VQtZ9zrI2SV9237bVCstBBD2z4OJ9GcaRZPzW47h%2ByCyT5otOYT416Sc8x9prgIh67xIp2DMah%2FYoMP1Je6q5Xf090ZFkEc6g9tWWY6CnzLEPYedwXDOZz0nG7EKyho%2FwwQNK%2FXeotJJFDlkSpOqkybWllJxnXV%2F4yge010mNUvQPEVG0tVJqUI%2FzeXvIym1hTPFRzo7D0jS0EnDZc5%2FUeT%2BZxjvB4F3y0f3RTX0A5AZWFU5l4kaeC1FkdWT4CNVD%2BTudBiPMH5MkU31vlK7BH1L1snEemFoptdmJVwXuTeeV%2F%2F7C2SzwdSSOxaMj6JoqmoXVnespDLiq2yxlSMDQ0Lzj4UcN1K07N3Elyl5AnGflLz%2FMcCL8jbj9%2F4UhfO6wuO9BYKS1CBuqt9JtfJTnc7%2BgxR2CKxqkK%2Bo68%2B2EvVGlpy3ZrUHrsGUUS%2F5%2BPXYmRMc3k9juh%2BaeGUlszqoFaDfB4EdXkg7uUcV4lJVPQb50TWc4z%2BaosoAQW1F9nBQ%2B6Xkf88AbmM%2FdaiBTuAE%2Fy2IDvOc0JGgeWTtJqkvOanCtr%2BaQt5VNXys0Gc3Lb3uNa5dx9s7URS%2BYL1BB%2FZ74p2Ppshb3RuYpBvfx8fOOwthlxXnsbiHwHN8yLpNZT5KUfZaVejjqDvtVlAwPZwiKWLWAP6Q3xTbP5MiR%2FdJmDdA29e7KT1QBGIwHsOjjy8KJQn6UrKeqlr20V7krM%2BJS9T1tte%2FUcfft%2BleHXzdGiZqDL535YE31CDdTiKD7hTe6d6pjk9riDbTClJyFgLOr8Hd4PdpAzqssjQM7VXhFUcpZA09LCYBd0g4DxI0YieaI6QDUx4F46YnBmDbOpilah8M4k4U9RPRYa7fzHnnexQtQtqSpvXBYPC4%2BIVWkqy%2F7lR%2F2MjZRebROS%2BqdHjD8ZFMynj62Syzrab6hTY1zAoLqEJzGkJ62QIZxCXprBJ0vQOpbEQcZCz7Jlf1YypL6PxgOq1SBT3Mb6X3YR5SMCrrr1gSB96Scj701QMxWvZBOa7BTAsmIv9E0dzM3M2UuD64hQrHuxYh67KtQSCGHW%2BdJGzz2NdG8QnIo0PVh5m0f4wJXLUHM1HbcYbKb14dUduizORVc%2BTRXVc8iL4MCb0EjKQeemNlBb2gBD%2FPLOFH28cPxS0xaTsJZcX8C%2Fqg5E2czh3RgzmuhaqoazMmrSdoy8QzRS4u2xrkkw5zO%2Fc%2BlyUILD%2Fa6J6GDkGPB8bx9nprM5tJFDqN%2Blp4ViXhmZOk6bTwX2VTRgviKFoSqkQyPDZ8s%2Fwx5ZxpLGEMoZpbUBf%2BVNKrJHnR09b2ZeP3Kr2SokndFzNc91aKgicIBE0h606VPuxN0smmfP9W6ey6fe3GuaN5u9tKpAepfQ%2BrdERhm%2B40aTvvpOEAwv6V5bSbGrosy%2BZmGBFW0iLUnOUhNWNN6e0lvcqghGPd1FwL%2FO9SFIPxIo9zoc%2B%2FWahJ0Ew1yNsVEQ2xqjhsEnRb4r7jrOoPnDOCm12PnVtCaaZCQ5222skjAz9ibYbE3aLAKx6oCHuhGpVnqCz4Oid5nLd7ynGY7JXlCW9owrENzhpVHqB3h64WnicfdpzzHyqg0xQIWftK1u9wSsxpi13qz0O4r0es6g8MmqGj7nVKc7dtOtdFxPE8KwnvRAmqkb5gyRbBkZWlof66O9tDwZl%2BUauG35VYz0clHF%2FbhwoqRCvCRJPN%2BdjRQkmCZpN1h0oHJqo63JOI8e2PWFc2djJZm76da2nvsGG3UdpS9fT95CBpchB4M6amWgy702rai1bS4uwRl0A%2Bywrc%2BrqSXgGLdcYnHF%2Fdx0WKGvxJivTZz%2FI%2BxGHcUibextGWidFFLi7LdO%2BAUEGRZFttmstVY9W2tq4Zfqkbo7tUWfWhLUEqDXnf6nS5GlCyDtoWEiyw7K%2BkSL2VlA5tgFuUvrqyin4fjA098GV8FRD2nTluiQASZYWjmkDJsf36yzQQliKw%2F4e%2F919sQaSFTmkWFZ%2FUXU7RmuUsWNJP7wxlbiFrkLLI%2Bm1e59p8WdfbYH%2FKKoOAqLuoZn9dj18T9JGuKOm2eI0u872ipne%2BZeDaJkeH1gLYW0nWg9VD5ehzMOz%2FoUonZ7zu6hIff%2BuU4y%2F0Y9G%2BpNKFW5iEuQ%2FVQkHnxXru5H6Z4ZqvUrT4qL%2B0GIXmRcpawXiog3wbHeOb2%2FVhru5Wf%2B0TL11OMj2JfPR8lRhpt8U6gyAHmVcS1ULJZJyH2PsZ%2B1VW0C7BGiXuDqKx2Q0nTuFhfpao49eV%2BPizU44%2FToK%2BRFmu1b6c4VxItZ8ZyIVWhs56B5Wmero3Tdq%2ByKmrbjeetpawUuOSBhWG2247WW%2BddMwlXactcNmM0K56jn0VYb%2BkPkiOSoNu8p0ZzkdvUKanvZ08huWCgYWPU7JrgzjmDPQXLoOs90tc8JK0r0awq1T6tdVtqnspA5a1dyWa3fmuWkzbTiLhLBOMA1xvfSgtpeHUmzeILmyHr%2FA893s8zC0Lr0s5LgtQBhYwQXluhvNvC0fuxTB0cyDrvT2k5rTl5b9VaUODZNxhkHV9XoPDBTiUUYJPs%2FVuo%2BRVjZuHJJ37m%2B9VWUlvoJW0JLtViAY80Pn4u3i6xPeFw6DdEo7DWuVh4b8BhXOJvCshRKS3F7zfR7lOnjMgG65BYrtkWrHYZpW4%2F%2BFtox2lOamqjDbKYtud%2FMxlkXNfEXrQ3KwLZu8zT4KJoEEFStKs13uknHsf5Zvoai%2BhODEbA938gSTwBRwh%2F0%2BG8%2F%2BX0lfTugDV3b9U%2BjZFPtvhEXHH%2FnrxotYgCFe0U11Ldul4XdYa0TV%2FTmxyjcu8T7PmG5%2FUtKks2mLPWkvXqfR3isypFlOkN%2FXvzAaOiuPJvBfeFoyhv9BIJarmDqD7IZW28zgP9QoWJCcmHE%2FCGHNAkHLuFTnbRmcJhI3Ac0dx%2BgZFfuBfFj5ORBbrj9u4HmUFvgcccb3Bcgyd6%2Bz%2BePGiZA1%2FB0MS5Z%2FA8btGmBiG3pNBftpN7d8pU4cQv2dQR8M3KbnqtCIktiUAC2L%2BJ3iFYsmq%2BlUN4zPmQJZhJFQml1Jk%2BhfHrUzkvY46beqg35Vyn%2FeodATVnBqgHnyCoojsJzhqVht35ssLFuspxu9P8LNCEvxNieOpzWmqG25j9%2FQ8F2Zyh2fMH%2F7EYT78qoRzwHk%2Fo%2FSgEi1H1jNSCTNNLRCEw4wgQxU7oq5qVhKk%2BnhQg0pMYg%2FCmIFnChWn4%2BPVWfSSGrVjNWN3vvZ%2FUkzi9cGVPOyN4xluMGnYy3G9if1j2yuZOLEE%2FaomFilqYXx9wpRQeIgioMPV7Isl3Kd3M6mCWP33vQznQwBbl%2FEe41KIWgOWJTdmlPJLqTBFyHrrTOZ5bdbjD1mtQNw4YBNJJ4XeSlruHqVzVToz1FZmVWFoybyLB8NZU4eR2jKVd78scf9BMJmupYlqOLMmL1HjLc%2FNcd00lnTy4nM5rnmqj4r1HQnqHEj7t2TMz6XjX0%2BbBy7NUOv%2FmJHYNS6myEOiD7Boa%2FJAIuv89tW1fY9lcFsKK5A9rARG5BdFPdp%2Fhxr0fjqs3ki%2BhK1JWvsoWcFyGNKqDGkNJx3dppP8ghLo%2BJNV45ltqUT8MRhDHw22p22UkFKgsmDIuFXOa79K6TpqG7Cc%2Ba0tTD4fTjmedVXlSMf%2BNTTwcShFcSp9sLLgd4fv8Uc9ufNXA0kNMraBzCqJKg%2F%2FSmk%2Fd4ew4VYs51QSCLbSoBo5c9M1w3n%2FsoTnx%2F52JnYMrLBAeAnVAvNWjQGnJtGqg1RNnyUBEzXW9Q3l3z3GwLXNIOgeI6%2Bkdy0Z81X%2F2BsWU6%2F6l1ucP7vgY8Dp0f9lvOZbLUw%2BGDG8Pm1Ak2MIb8MKGthAq7smw%2FnQUxf1TY48fBZKwYEc9OgX9UVBFJWsRzdIskT%2Bzv0jaXehVfp1S0t2tYBL2m405XtK%2Fb6v7j6juaprYqzESHo4H1tAUUjY%2BVQL1qttwdsypna%2BtpuJfxHLBFWqBQUGQW%2Fg1JvSKTUJ8GU9S42k1%2BQ3fDiD0qOXpwHLhLPou19Dem6jNZEmJWLMldU9rEs3v3CAk%2FVN5L8gBaqPu0q4JyaZz%2FM8F35d%2BsQ6pChZj8gUecVu27zCqjKxY1KqqiDJjWlEkr%2BuC2qg1QvjOXcdM6SDJV5cg%2Bmsh5ioocYYTPUm%2BXmj0BA%2FA%2FLayNL9Eh64gqDXM2H3oxvWmeohZqmeaVW%2BQRi83X2thMdozygp%2F6jFCejElOO%2F4hrhC6iJbN7nqixaDFR8TKU3e577Lw%2FVUhZ8ilu8D24dCGTdmcn3RuM5sABb7%2BWPI1kv55asG38%2Fan2WbpaupzE1QJLFmqV7VXqEJWn0780KY6pJu5vlql6yR7fpB%2BxSWaPIOpdkfaXHOVAq7UvpC1NOomSf1OZ5uzepKN5HkU6zCKDKe3XKOT%2F3boERdnbUzBdikvXghHzaPHihL2sj7PHP9zwXreWgJjyD7%2BgMrPF%2FzS6QjoLXB3VVJsgwVK9s6vmrDfvdutlsVGlbHBM4fBcHLMXO4L%2BIcfIiS9fu6S14kptM%2BaMxQpa%2BvKE5aIm%2FMVdEvX4lFYv%2BeCUrXbwxShVIDvuvt3pKRWiQWBT1HZakkgAp%2Fb0Jx2EDe1lKHljwtDTn0BWkCJOwA%2Fh5b8uRx%2BkpxzG2%2BkNsn8vF61ZGvbDhIYt6ZYOl%2FgRUb%2BI30ZHfeOob4D5ZfKC%2Fmb9r2ZhHkRnnNzzOxbzM1XxNC5K1jhuehaQbe%2Bo2ax9vl7C7Y92EnY6SMdx5pJPlvHXcr6821CWBleB%2FpjqWjrqVk7ZVlfEyqrmQXaf%2BXu5U5zS%2BD3wUHJm4%2FCGdxv%2BShawx9Lk9GKMGHT1Z65WPjTJK%2BjyjsqeRNUzaPs1fKY7BTPo%2B0vFROcl6sSFxId3Dnd91LMWmlf7glM4GsK2oPJc7ip5YGf%2BFf78r4Vub%2BB4%2Fr%2B05zYg%2BmCPY1nK%2FphGRAdhawQXAFM%2FzsQT8T018nm9SFCDiWI9zb%2BFya0nJuicnSWsCawvN8VwqjEastBJz4PEMNZJ8hfUYZHYs9H2eJfvtuHT%2ByV3EoIYqPlJtBw3yiRltpi1hlBDte8jafblJd5m1A6CEziGpDD3wdzW0uF%2BlbbOtL7iWkmMeapxl%2FF7B45mjEs4%2Fh9whuBDzcULK%2FeBK4CbK79c43tHvyemLFE3wpUWcOdGjzdkW%2B1xHbv%2Fe6HRcjqpMXSrIb4GnBHo3FfdSlxewkZ7peS6sRL5U4r2H8zh6NP8exS1%2Fvuf123Bd%2BHzrkXUlRzikoEEDNsopWTeS3MLEAb6PIiCgo8OINGb%2B7dzMlhhy%2FioeZELp8BgPErvqnv%2BgcOW1jaSJGoMdVK1lkXWF2jBvYnYfy2R3%2B5Pq5IZX85B0fHR9MI36emzfaQ6yRqf2AZX%2B6sjrMvLTWf73Js1OPgxLGJOt9bg%2BbYEPZkey%2BvF2WS0gUvr9XIu%2Fxiq7z1nKvFXQyR3u3p7n49x3GiQ7NEayUGCO5e0xfHwYj26GswQ%2FjH%2BPNq4fQsVmpj7HQscDrUbWK3Jc49K72cm6HsVcZ0a2zZjg2V39fXDT%2FVZTzRrVDDa0lj835tmfolowhOi5ztw0SIxHxKlS%2FQRm1WC7at272uNNui1iJloJ2Ie0NVEHnh2suu7JYAjdSOOUyLjel6gPIH%2F%2FHza3lfNZ8jV9Ovyaz3U9ws%2BZiNJwAUvWRPnDK7kmuJ%2Bk9GXdb2bJKwk3ZXyeaY6OEWUF218sZ7%2FcGBF8jVUZN7QYUe%2FCUnIWj3bjWfqfVhLJlgmMjnYqO9Ois7vLrOSQFGGl0bRuasM17iXnkHHX5XpSc3Vflc7dRJrrmaxd91zLfe5UJuq2sIs7TP3dw8u%2BOjm4wVynGsRuITM9sYzTTfyWq%2BMrfc0LLwsmhSZ7g%2FyoGs92o%2BfX%2BL5BnHGYC2iweOmYBKK%2BxpOoUW8%2BVkJ7GevYv9TjWh%2B3nllDmf0yQSS6iNVRcdXN9dQ8a5msQMvCEu9%2FU3bXo6%2FnNIMl6VYhauJ3Oam1yLpCCxInxFzH6snrFU5CC6zUeX8J7%2F0WRdafDS1ZN1KabXd0ziBuqoMUbbcrktBEbdprNwZVSPPlPddJ8jZJQjvOyhoLsoaXyNN38wvVQfRTRdaws%2Fa4AGOP%2B8hv8cIyVmm4gOHjlSwVuobsmMSBtcA7PO6HOvPGktqLSyeeps4a4aEawhLnezI8C3xYuCLgYDSSFJXnr82Q%2FHIAo5EBH27LgUvJbVXTL2T9rJWUsy0O2c2qBnEraG4vJFXXln5%2FSbHQ57wXnER2zzNU%2F323IuchDasR3X5IXPs2qvRgw7F2cimIdwpLxWaO6NthRtOnXiqQs4MZtCzoUCyTqjHYkQnW1%2FeHT9SOOQlSJgIkQx%2B7r%2Bf9jiK79UjSl3bB1fieSckTttmDU87JsmQZk2ofSjj%2Bfor8sdybINH%2BhZLcG%2FcNNlC2QAIDCWjJpXptLKoGeSbRF4hPHMQKvdJ6vMNJojdmesIgkby%2FyBLIJI%2Bc3que52GVZtatgLQRdiVFJRL9viOcoPVfVLRb4gpNH3VIheb7LFi6PRhNV1Qn0ezK2rR4iyDoR8g%2FajlWIRYxszqbpUZfkgFJ3uqonS50JdRo17L5NF%2FoPiqYKz3fCaaLn004%2FiNDLfPGBKl%2FdOa2VI%2FVyd29N9Apbw7OpmzAHE5pi3WKStZzM65ArP%2BU0bmYKNijgUy1z43GMThmyx%2FP9bw2D3VVOkH9fYJJ%2B%2F08tNTmUJDKvhIO8dtUI2inYQ1StE2qbk%2BRsqPfP7Je1%2B4k0v0SSdpPDfWoTxkhEsykykb1YVOrx5oU4jCBhR6n56xpUHdAx51lldiHyN%2FdpQlMQB9INQe2Fe4cYKPsivv3SEJ%2BJ1H6YhIsL08LZICO8Rqujy48HpNUMSMDn94ux0YHUn4nRKNLImsoGf9Imy9%2BWFZGRe2s0bti8mb3zJ%2Bo%2FtPuQ5HOs34Q0eWsZheQr7%2FauO7b9jtQJByEUUFOsAYwaDM6DrMDiRN%2Fe4pEX7MKWanSNc7RSGNZVsKGZXuXNHvz%2BgU6XlG8Z7etpeOCl%2BiC3um0c2VNks56NZMHOtCbE7LEIpyDM9YKzBLsygR%2FXMZr4Qnt4oTjK1PueytLpL1cgkNSCPexFJWFz4gjCViQAS98aSaHBzlUNMcmqJU%2BwGolk7QhqGAxyGIm03gVGJyihspqBIDO6sgWJduNXF8wWoHNGOZcFrAK51SP67H69IMUOXzqR7KOiOEhyjO7XE8qr3Q%2Bnb0DuDyVrNNciVYbCLveRprIHR3dXPTSRvXuT81j5v3aDMLGEutsgXj3DhtqkgtXshB3fWcF4pnr%2B3mOb1tEP%2B6dHAYbaE%2B3BrmFieIPjuOH5Khdkxo6cD%2BAfL6fcs7TlG7P6%2BtY%2FhFyW4NgqfLUlOvnq%2FQ3y37oleE9EBYxh3k8xwnkXrwBC5BvJ6hjLmTpdp5B8EWC%2BGZd%2Bo2OpKcE4dEHa3gUA%2BJdwuS7jAWKZfwtl%2FA5S%2Fnvy2QP4jCe%2FFY2fotH7oXia5ZROKho7849CIpwGD9LT50UqiOxNIauXc3Di5NTCdumBnFtm%2FtcJG3aTldiZN2ecN%2Ba%2FfSq0HQwbQTQ2BDdROzy711P4s9QhpiBu7atode1raT7qiNocsXLARyk0aMtEtwhlH2hh37e%2FVnqGutxPpZ7Y2LyDk9yOKGkxp%2FkVXAFl3mSe1eX0yasjPSdTMfI4xcp55zGI5UDEr4fllW%2FxKQCldM5OcojoOzrIdZwh%2FL2jNetZGJdYhDuYi7zlfwea%2Fj3Mv4eS6nmjLgoTvckazDZpeRnveSWb4OggMf6O0MWgJXCw4VfuxJ%2BqGvrPnkHD6hWki2O9HA%2BUvEi63hQgN5Y6jFSt8fv3tjveKo604edowJ79WnjyjfSocJJ7pxquNa7MXAHcH7PNPpczza0U2VtFs9RWKX3Vf4Nc7WbCtYM%2BDBPcwQPnyBv40bri%2BcoWlBRBI9SugncGCY%2Bl1T7CrL73BjEBJykHkCNhBOnv3g%2BbycTlsvEEtK0dk41k%2FItQkOw38NzXIeO%2FtexWghrs6f473OcXuQOZTF%2F71XUv4Dg9cmUc27jTv0P99%2Bf3%2FK4DLImLsBJGYb1Ntze0OtrNcRyrpbtVt3khalkHVBj9BZNqD0OwrYRtN7ujRG2eX01RthBHXm%2FzI03aHhPfU1jeR0ZSh1pRJ1O4LCM8J9wU8%2FxQO8IOnjjbjSjsj7rYOlPrMIoKxjxkSx52QDp76wcecJN6T0FRpdQOWDyzte5%2F57ciZke8nD%2F13mMMGxe9%2B7nkcRjGZ8bTp%2Filif4Vh%2BmRjtvqHiyLFZZy53P8znKE%2FyBlZV3cf35D5N0q6OTO4xBjhHDp0zhrAhZl%2BWf9ncNBJvdYT6GvNs3kA%2Be0O2iFJMiv%2Fci6ixxCtMCGLgCAcdN%2Bdobjh8SKoBN078OQ2Vht9c%2BOdUveFLZ17Zvyhoc4VXtq2iPtlW0KMi8OOxNVG7U%2BBsskultTHRn5czzH0wsIPt7yc98bCVLsbCA2ZmyRWG5h%2Bv4kVTTxX%2FT47oDY2MuPCe8L%2B6Rg6iBq4yObyGrEl9L9gU5v8mQ789YzfJ8zu%2BxkDu0M5hPBgJR69HNaZb932A%2B%2B15ZNyomWd%2B1iSkOK2G4S6yfbNTrdLD2aZ1VutZOdDqsw39Tqg6oMeisTRUSl7J7YxK1Tap2qUFqv88gm19cFOFGp1Q9LRz6BQ7JOU0VUvuN5by7ZdY8qs7ggo3T6FMbtw112NX%2Bbxh%2FYon4Q2T3TlcEGPFsxRKSzdEtZv9foIxeCxPwbh72%2B3QSIPWPU2QRAlvzBQXvjcU9cDj0BbK5jKjhIIswtIYlSTzD49zx3EzJ5otbAtaweulvLFhYFyT1nxqkRtao4EspXxTqOHltzbqpGmnoyC1LneMBSB%2B3pkrVNh1ynKxtRJ3020XU9YR9pbr%2FHOu4pptqS94bcQWbFNpHBb6kjQYehA0z87jrkZ5hdOD63WmrykYfqxD%2FvoDrXaWSafgFR0pdlE03vTkA7z2DO92%2BxmxDguxmol5NxYPSbm5AZwp3BJ9OOqkVyBrAaqjDU1ULQar6AdLGMVbpGvLzCkO9UA9Mnv2ygbiqDsLupUb9skt%2FbW5XHYRdJdcE420qHdggtbbztevI5Qtlx03SStxbX5BC1NRA7PClkc9joXqut63dmf7eO4qmtG3IXVWq1Sp1d3dTb28vtbW1UXt7e7ivo6MjTIXqoaUjQN5hf6PulbFDyFdM6h76%2Fbq6uvrknrb31s8wePDg8N3LLFdBcRQh6zLtGq8ln1ng9DqMWX1YANQv4e3hQUY3Dzg6LCqUILQ%2BuNEhXSbrrF3uRW1%2BqeOuT%2B0ECdyitg9xri7UJona%2FK%2FSIFXXS%2BE207z4X9NcL9r3dyriWlbd9%2BCOZXRL7ziaShsyydYgrJ6eHtqwYQN1dnbS2LFjaeTIkSGRIIFUHnvsMVq3bh0NGTJkE8Ga12clq%2FXr14cdAQgT27g%2FOoNmE9fatWtp6NChNGrUKFq6dGndMzQbKEeUMe6J%2B6NsFy9eHL5z2R1h3o4M3xbfxhxR6Y66WR2b7rTN98e9snTgGzduDDtAfT7qcd7vWvQ7lEnWV7NOrQxXhbA9fW2jeMYDwh7WIHY0EOBN6pxjKNJ9V1LJOIN06ZzgM%2B2y6%2FdfptJ7rffWGlCimg6%2BEuuwgtSgqrX3qlhIvEbaFxVraUQHdCyn8StX0PKglwZVgsRGicqMBogKjsYJApsxYwZNnDiRRowYER5HpUVCpcf2gw8%2BSKtXrw6vi0vj2JfUOHBPkBUIH3mNHz%2Bepk6dGpI%2FyOvFF1%2Bkxx9%2FPNxuBnEhPxD1pEmTaPvttw%2Fv89JLL9G8efM2dUJp98Tz413xLnhm345FEwnIedq0aTRhwgQaPXp0eE%2FcH8n3vfEMyA%2F3HjRoUOkjDrzfzJkzw2%2BpO5dVq1aF3x0dKvbr0Za%2BTiff%2B%2BAdka8eveG9USfw26xTeE%2FcM9TfqnfFfePlg7qLc1GfIGTo4%2BgEV6xYEZa57TrXaEcLDYXKskQ1CIBVUh%2FNKVHHcaYinEYXmXq593Im7XYLoUOFEND3VNrfOsFYTVCH2Oyvbb9deuro9%2Bnq3G%2FVnW%2B%2Bv9tMj7izW6DyGGe8T71ah8hPXx2EovBwyutsv1Irs%2FcM3of%2B3TaGxpNbFYKGsnLlSlqzZg0NGzYsJE0QCKRpVHwcj9c3kMnLL78cJlR%2B3TjRwEB2CxYsCBs0GpUmerOBIk9g6623DhsVyArX6gaL9OSTT9ITTzwR5mEjLpyLfbpR699pRKGJGvfeeeedNxEe3h0N%2Bp%2F%2F%2FGd4fPjw4XX31MSM89GQ0aHpho93xjMmEQHeGY0f77rVVluF7w2JWpOVLtenn346JGyUm63skAeeF%2Ftx%2Frhx48LtRYsWhfcvStq4hybGHXfcMSRrLe3q%2BoBvu2zZsvCe2AZpx1U62JdGdFpqR1mMGTMmJFNcpzuB%2BCgECXUOHSvuozt37Mc2SHrKlClh%2FUU54HlRJ3AflOv8%2BfOd9UmPJPS3hJCC74PvddVVV7UMWWM2fWFhoq49EpahP9hwTK9qXE72pd21dI5Kn89M1lULMZs21D2x82r53Km2P6h%2BP9ywYMZ8vl5KMpq8UZ1zuNPcMEjRWdf%2F%2FSnVQlnlw3qi%2ByduR9%2BZ9Q4a0bueOoLeRL20bnyomKjoqPxosEmEpyu9qQbRw1WQ3fPPPx8mNHotqeI4juG6XXbZJWxYuA%2Fup8kQ5%2BE4yBCEPXfu3E356ntrokJDRf5amtMdCxq967nRKU2fPp123XXX8N5I%2Br4gbDzfQw89FJICnkPnr6VL7MP1IFwtVeM9MRLAfU0i0MSHBEKaPHlyOFrBs%2Bv95rMhLzwDSOWRRx4JtzVp6bxQ7vhOOulOFR0kngMdrym1ZiFwLVEj4fvgPVE39LcJ5S5WFeF7oHMDuWl9P%2B6HZ8R%2BSLMoaz0Si3cGSHh%2BdJooE5yjOwSbGkSXBY6hri5cuDDsLHB%2F5INRCgQN5INviG%2BlnwnPgG%2BDThACgJ4biD8TrkE%2BeB501prwL7jggpYhaz1BeHQJRA3MJ1sopEqNSMJJR1N33GgB8srQEiKgIy2LVNInG%2BO%2FbYtfemmxSl9V6Xyr1Ug3nz%2BaO5rlvL%2FRDPHD6vm%2B40XUNnJulLLhQS6fh8JKVL4vK6I7eftTSFEpjepZE0Y7T2qgeuiJRqrJq4iKAY0DFR3E8fDDD9OSJUvCe6AxgFx23333UGoBEbjyQMPUkiYavpYy0cgg9YD88FvrJnE%2BGu5zzz0X6p9xzGyUIF1TotakZL4r8kcngecEWWLID4kPBIrGq9UX2KclSE1eIGskLRVqiRnnQ6UEEsA7QMrTHYDrvXVHBdLWRIhr8AyzZs0Ky9CUsvGOKCvkDdIGSWqVAsoY5a87MZf0r4kaz7zbbrttIuokrsH7mGqQUEfL0jSeAYSKhHy0qgj54z3wHdBZ4%2F3w3TS5ptUtnKO%2FK%2BoF6hg6QXwjVz6mAIDOH98J5%2BuOEPUC%2Be20007he%2Bs5G%2F1el1xySUuR9cxwQit%2FxPM44J3unXUkosmwjX%2BvN7Zt5nrR3%2F1UOk79Plb9HZNK1r0pKTrnbpUuV%2BkX6v6rrCoT7f4F3i0G8z4IQasbJOy3qjx%2Fm7iIJ2lfoyrEblXjC%2FX8varSfXLWHJo3eDJN27CUeitlraHKDhAIGhCGrWi8aEjbbbdd2FCwndQ4NTGbum%2B9T0vUephrkodWCSCBtLVUiL%2B4N8guqVPSnQ2gyVmraLQaxLw2TrBPPfXUJgKDhLbtttuG5IRycJG0jbD18N58d022Wm1iIySzvPDceFZIoiBskJtWW9ikXbwbVB8gLBBYEZ7Rk3ogakja6ERQBiBWkDTKJKnj8oF%2BD598zPKBdI3vBIEC16LzA1GjE8Z7myOJ%2FiXrPztf6Lch%2BZRD1hRKm9CFB4bONy5VbqB6y0%2BXrjqgUeEkZJUOV2lvldfEBpvraoI%2BupceUOlmlW5U6T6rOZ8m63VMxvDNNYi3dafSbUwyVmm6eq5n656ZyL36Mk0NEv2eQpQ5enotD9Wh%2FHDGgXTVuDfQjmuf71ei1g0EjQmNAkRgToplaaA2SSlNIsd9QNbPPvts2ABB1Bgm%2B5CmzkeTs8974nyQAaRxrXvH6EHrZrO8r9kpxSdlfSRQPfzXhK3VQsuXLw87TpQLOktNYDpPjDhsqo9C1hAqf3x%2FlDs6P4yKyhjB5a2PWsKGSuTRRx8N6wRUPqinLgGiFckauuZ%2FlkjWwKfU3%2FMSSUsvMDH3NZK1qQYZHKpJqrSrSrPU%2FikqQepWLVT9q9Jy9b8SKWm%2BSnNVekilZ6y67LjaYwNPFY5lct5AjT5DovPHq%2B2H1PbkuufNI1XXtuGR8P1F9NQPjptBn5p%2BAk3ZuDxRT91fMEmk2Y1Sk5RWV2gpSg%2Blm3VPNHr9ntqioj%2Fst23qAz3PADIGcWudM4gTE4kgak3iZd9fq0G0RUd%2FloU2C0WnBWlaj1Zc36kVyRq4jLJG%2BE2zfw7oEyp90xHxpSZ166XhtsUwNp21S7L2UYeYZK1JGsUCG4yhfGyDJf%2FomtnqL1ZeTrOStK9kXS9dw0XeeMoTBZ5NCp8fNpY%2BNuM9IUmP6VGSUT9L1a0CbSHiIyFvKdDqAG0Sp%2Fehc9kSFuTojhWdl1b%2FJHWoRci6ma3w%2FWR32J2PvKPf8K1xXuL5eCOo0EwHSc2uM1pKxl9EI4TnhZEGmduvQVT3e9XzTkuJvUipcRrNbTgmqiiizhq4mPX%2F6wd10jnT3kEbKx00rmeVELUBEJIQdT30ZCtGGqbOektZOalHPtouu5kjn2ZGZoCc%2BT6Ku2NMi3biJmr9F97cEH1jjpM4zUAAFUP6LbP%2BBIakrAM%2FDeGOoiemjmnEQeq5blAEObhuGXklw73tEdAXqDzOy8dEUX7fnnIoze%2BaQNuvX0g9lfYiJQSd%2BWSuY%2FA9%2FJRQW%2BmAG4EJ3NbgWGlhfz5MfAVqBkzmhNaDAAJPl%2FRIULDDmmw0jzRfoOxRbFpnFNPk%2FGEBjjBLb0iNHehH1BpwbgSHT6eQy9uXGaJLS9mmzXNWidtUp%2Bg8upigtbvTKtkj1tUDku%2FnN71%2FGzWGBMtT56MyzT6pW6mpZa6ZtDfdMWxnmrlhkSLqXBL1TIrcRSKm5m5Ub5yIAAJ%2Fpcj2%2BzbPBmxGSsE1H0o4H9Yv2vcyQs29M8Nzo9zi7kpRb%2B%2FIkAdcjX6cf0PMPCahg0LAgmuNbYR8%2BrLnffZnIWhvLm9TOIIHPKjVzie%2FEFIYk%2B%2Bb4R0PLbHThUdJ%2BFhHBPZXUX0wYtSVu%2Fn5%2Fp4j7xMpcluxN3dmGiDsf1HkghUGzz6BC9q5Hk409qF8f5CjfPEu78ktxTdRZ21KWC84fW9kJet6HS3%2BnarS9%2Bt0vrZJRVeUmB5yW3%2FYAgmYCqQ2QwXSY7mu3jRwhvp7iTr%2F4IZnszmbIiKnHpss21X6DNUitGQeA%2F1pzC70pYnH0IyNi6kr6FbZZh7OvYOJeLDHuYic8sWUc7aJEQOI%2FvUJ55sBMJ6JEVka4Hp1v9g%2B%2BJjJEsQVgYNNj2uwb9%2FBcS78cP8tRtbv9rjHt8juOzmOl5jU09yWwo3nHhnecXfuCIsCQUbgU3u4x7l218Ju4RPuWn3iR2IUcrxHh6xdrpmAO7kxKddh9B%2F37f2fSy65ZNe8hdYXCskFYW9SSZBW8xE1MaNczBL8VC%2FJWL%2B1dvzfaaQuIw3iv6AeTBQO479DWZruoPoVjMmARDhX3fdgS1AAuw46fo47qADwqPr71bx66nkjptDXxx9BU7qX0aB8RA2J6xoLUW9wSC%2FnMGEnIa4cXuzR%2BEyy8sVoC1EDh5A9%2BocLcT%2FXcDz%2FCce58SWdPrExL3YQ9SqiBh8AWzERT0jJM6tKoAyX5ugc%2Fmgh6m5HXYHLiY965n27g6ht%2BU7iTnqGJ4fF68z%2BKdf8r2XfoiIF11ezRz8hn1DsPqGr7CR8PEsyX%2Ffo8RqlUjOyS4dB4jpgb4dBqKbUnI63hz13hb6r0uDEaDN5UkTaPaH6ozHCTHpS79%2Fb2UbfGncYDap204jedYkrFBOGs%2FGIImiM8MA4nTvRPVkqNAEn%2Bnu1gCrwxFjnookPX35OwbxRH3cp4RnfxCq%2FOHnvy%2BU%2FnVU5prQ%2BjLJFekFncxCrsPaNpTfy36IqkGFcN%2BqkTVYZbc115XUWSfrblB4841x%2BdhOIjfhKzncGq0%2F%2FY6mreZDktxp159SyK2pHHzYKSJevdQ67Ak%2BCtf2OMCSUZIJQnwd91Pe9JSyXKWDVokrxw1sIoZ8q9AarRGz72xbrAJL019rKJToHLljn5%2FoiqtP51ZjX0RNdk2iHjQvyLnw5zaJSeLNluH0vf4%2FzYp34K%2FqZrP8nRq6DDYkYjftHBfO%2FhYoH5o3r08%2BixsjjN1MtYovW3b%2BWifZOj3tAz35rk8sa5TrS2H6CydQcRd3DaXGsrpxq6bBMVWs8aO2RZLpLjqTrq3gEuMAYdWxH0RxA1u98IKvqnnZ0ruPKLrxiknV2u%2BDDLENAN3Gn213bJGVI1vAF8lRI2hVPV6PFMYIr0z1ho2mLEXUSaeeTqKPKX1GSQZ48VCewaOgoumb43jStG%2Bt%2BcleFg2PD5GMTzkWE59%2BzdIOoJy8QUX%2Bu8oA1halD%2FAE3aI3Xkc2DSzZMZcEhL0AmrzK2n7UQtYl4rMpTPO%2FTzgJPM3FCbHuORd1l1hUz5NlxCfnG9f2%2FjhG1CSguPxDb9%2F4MjGfC5c7h%2BGYUXkcfN45F3ADupaSYibZ9aZ7nGjuGoervR8IU3e9O1mlhqPhySe%2BzMw8d92Id1ri6wAREbl2zTZquOKRo274qXaL%2BfjMX1bE1zs%2BG70PrKl20VbAiL1lP4zIwdYZpIbfeQq2Dk43fsBRAODkzJuEQbpDXZMwXqpR%2FsfpH6y%2BvpmzWJRoHxbZ%2FkXL%2BH%2Fh%2Buib6qi56Kc9CKn%2BM5Y7HVH%2Fc4yEI7MY1NmnNRnwkl2a%2Bei0LCnqeC6P98R51F60VK7P%2Fi7f%2F26KyGWWozxYy9xwxEMma%2BGWh%2F%2Fqrt%2Fojz%2FF6sn8tDwnPYKJGJXmApbsnuJEiwmN3gtSMDzuTh5iv4TTbKrUG5BdlJk7GvmQd0PVq%2Fym5v4C696NDp9LtQ3alqT3LikjVO8a2H6WBhZNiagRiaQ5RimYZUldWsu5kKfJsQ5r8pTH0ziKtz45t%2F83jmh%2FkKAuQzE%2FJvYwLpnQ%2FLlDW02O12Uc18xdOaZgVU3f4uLq4y5CAK1zOd3uMPi5m1RkEtF24Q74nJgBoXr2Sv9eAJWtd4Y5VpHNNovrDR8qmlGONeY1iaeUg45xuJutl3FirhmQ1nHvdkU5rjCTCtm2T5a%2F5Ox6uqx7QgR5d1KvhDUP3IFhtdoQuUHJrIkbGtm2Ruo%2BzSIcmzqT%2BCYCLRjbJ2L7O%2BH0D1WymYWaG2f8VGdWLqFOnGmQ9nhsvttcWKOOXmlQegyjZfHB6QbIe26T3wHObgboXkF8w35dSns%2BF%2B7hD05PjH4mpd0wVy%2FcosqkvBf25lviXdXoonwCwSeScFDA2yQRQS0JB2HB34iHRnpwwBNu2ocG4uC1NN00Jx81jbisRDN8OKVTq6r1f6BpL93fOosm9y4sQte2r2OoT7K%2Ffk5DG9lP9O8z4jY76CmP7LKrXpZ6YI3%2FUHVhYnG7sexdFtuIPl1zGfYGiKpJmvUfgMRYlzzGrb6fzs5gwoicT92e%2B0CqQ%2BRSZcJaC%2FpKsTf3bS6q4%2F%2BT1KXwsMtIk6yIqlzRyDiz7g5gKhCxSdlx3TVap%2Bhq1751lVO3fDn41rW4bTBOqK4uS9dLY9hgPCSaObs97VQsej8OcBMJcyt5Um2DbyKOsCcbQ9js5y%2Bhb3DG8ibdhTjeHy87HYiBugz2lSW0R6oNTmJQrluF%2FUbO9%2BOhpaknPvZGffYKR71CP0Uu8HH1tzreh2vzX%2Ftx6YU2CCdEzjPMuTGgTA5KsgTsoso%2B8XRFJp5dUneaJLk0aL5uc4%2Be4opD7qEDs29%2FlidJiUHS2qnMI%2FbVrNm3V%2B3JRogbmxrZ3t5yDZdQ%2FoE1essMgwto0DsPJ1Z51szvDc3WmHMdzmnpO6N7%2FkkD%2Bu7DE9FS20t6Eo1iNUmGVyk8zdC6PW9Q3aTr0jzLB4n7Qv1%2FvKTlf1cR2%2FkJMBNnH4xqYHf4X1TzWX%2BRodU8bEu0w%2Fl73puT9htj2Yxk583yqLYw5hOu4aRn1g5xCREuqQUzczQV8j1OSDsjf1jldb52NsCvknvwrtqDFrRqppY%2BwXqyUAeNdXTvSi%2B2jaWiwoYwcITWbkzmYxH2VpZHCMgKxNDEBOdk4tozc%2BuoVsa%2BTtijCtDRYk3Lu%2B3O0jZMLlNNKqvcJgaH0eM9rb45tH5dyPiazsIgEttnfIP%2BFPe1Ur%2FstG8tjhDjbGG248Ht%2Bh2%2By5OrCLbHtz6bke1ysHv6N6q2AfDphjJCeMTrQ24wWfBvVViuW5j6ulfxfzqPIrO%2ByVEINUqTtIqoNX81WJYHQfcjZXMVoXlPbXqrSgaFUXZZmT%2BX9j85taYgi6mp55s03WLaHJxCJORnzr4QvtMzSuF1EBasLc17hwZQvOid2n%2FM5fZuT3jal%2FhMLltPlFEVQyor5Kv05Nnx3RV3Fgp6LY%2FvO97xPr0cnVxSXxravTlATgKTN5f4%2FTqgrP7bUM1eg6NGW58jbxq7mv1Cfmes5LmtG4bWis%2BL3qk%2FyaS%2BiTZO2faXrPKqQrIReSbm%2B%2FlzoxHYiP%2B903mS9rH04Pd0%2BkUZV15b5vb4bK01YDcAk8lhuiINY5XCWhdjT7GHji0l%2BTpHZ1ETOF0NfOISK%2Bxn5dUKeB8WIHQ3r45xO46S3r46R5HYFywqTrXl8vH8mtv0RVlm8lgkapqVv4U7K1MU%2BQH6mb8TlCZPaPThfM%2B1p3MuFL7Ka6PYEAv4O1ftQwXeEYyh4yBvFz7A7k%2BnpsWuTzBHR4X4ltu8nXC%2B25%2BfGSOZdXEbmCOJJrld5YLN5X0vptvCbDVmDrM5lXdXtmdUgSeZ7xZ%2FLT5p2kXOcvButPnpVwrLZ%2Faig0xdrja4MCxfBdJYbpgsN5YDYvplcYZ%2FjBFv2L1ga7u0peV9gIZsf8vDzWW5on4sdvzIl31Mc0pENcdIvOsG7jvItCrrbIiEfT5F9ry5jqEtML39QLx2e4R4gSwgJ91JtybdOf%2Be%2FsxzX7s%2FfYRtWbbik%2BW4%2BbupxsbDqWuM9MNp6X%2By6j7IAkITPWtQhZ%2FOI%2FTmuL6gbW8dGE28u8D2hArwvtg8jm6bEG2vlMCAPMAl8PvcEY5p0nUbmFU%2Fitpnf%2Beis68n89%2Brv7BTdXCF0qDbSrlJQ%2FgpvWPNgMigeoBcSjM3zWxZPavtaCHsw1fsXNofDSTpaNNSjjG3oUe9POP%2Bvse2zyD0pP8LyjDaAEC%2B0DM3T8HFLx0QsMY6K7XuChZ20gMlZ%2FVe4FvPE1V5J3v7%2Bwc%2F2gqX8bNdlscTBRN8vHWUUX0o%2Fj0cLPoEOTHv8obFjX0tRO42IPcdmSdYaXyLM1gf0m8wScpp0nSW%2FNJWGr211Y1oWDmsrocT1BA1cYEUYnDLB%2BsO2knE5q0HQoM7MkC%2BkMMzcf4DJMz4sgJ4VDoiOtkhkcbyGCQwNdD41egKM42WWvOfzNcvIvcjhOeM8fa4LH2MJdj6nJz3LAmX7ah62L3IQ4RkUWbc845Hfw7FnTksunTYmArUvjkVUb8Lmkkhns%2BT7H8vxF7jj3Yka9ctpOJZHFDdRo6VRwGqQj%2FP9%2F%2BGZ571GnYmbol7LHT7K%2B6eWTsisF%2F8u0sCKBR%2B4q6CElu6vOp6OUumDKh3oPM%2FlsN8VnMD1N21fnuP1z7MyjNZeVcMmRFGPX2vbNvdnhbpufucE%2BtzI40Of1R3U9FiCUIVAf93FxIWOaFUJ%2BWqXoEOZTJ8i%2F5l86ESLmsEMoeb60PAFJPfteYSx0SCF%2FsT23BmuznjdNvxdu5gM55akShjL9XAM1Xy%2FPNefBVQkYG4r2FlnwfWc3hoOCQPaK1UN4iNh5%2BrmyL52Kt2meoU6B8tQL6D%2BWWbdV5jfJPJ4nhojcPiiDHvFdS1SvuuLSmpNwOM5r3uayou7aGJZho685TFQQ1cjhhpWnB1KbleIyRONeaxC0iYYk%2F9imPQFiiwYPr%2BZE7VAICgZHQP8%2BX%2FH6ZVhbMPI4fhe3uHCKKfEnbRKsf7vEvX3BvX3xlDnTuHsnkAgEGxxZK3xrzBBBxy5Q4XEDfLeM3NOQSoB1%2F9tJOyFoa8TOF0KQlOiNVLNBAKBkHUjdAgpmFntoAhzn1C3HRE3ZsnbS71bhRao%2FGHYDztUmLDBJnWDVC2BQCBk7Y95nHR8tamKWDFjjeCZE9Vv%2BAeYQtGMOmxVYRes45vD7gKTOJhph58KmJ5hphumOQs5YVIEMe96pCoJBIJmopjpnkAgEAj6BG1SBAKBQCBkLRAIBAIha4FAIBCyFggEAoGQtUAgEAiErAUCgUDIWiAQCARC1gKBQCAQshYIBAIha4FAIBAIWQsEAoGQtUAgEAiErAUCgUAgZC0QCARC1gKBQCAQshYIBAKBkLVAIBAIWQsEAoFAyFogEAgEQtYCgUAgZC0QCAQCIWuBQCAQshYIBAKBkLVAIBAIhKwFAoFAyFogEAgEQtYCgUAgELIWCAQCIWuBQCAQCFkLBAKBkLVAIBAIhKwFAoFAIGQtEAgEQtYCgUAgELIWCAQCgZC1QCAQCFkLBAKBQMhaIBAIBELWAoFAIGQtEAgEAiFrgUAgELIWCAQCgZC1QCAQCISsBQKBQMhaIBAIBELWAoFAIBCyFggEAiFrgUAgEAhZCwQCgZC1QCAQCISsBQKBQCBkLRAIBELWAoFAIBCyFggEAoGQtUAgEAhZCwQCgUDIWiAQCARE%2Fy%2FAAHnL6MiIrM6eAAAAAElFTkSuQmCC%22%20vertex%3D%221%22%20parent%3D%2233%22%3E%3CmxGeometry%20x%3D%22106.44%22%20y%3D%2220%22%20width%3D%22133%22%20height%3D%2282.44%22%20as%3D%22geometry%22%2F%3E%3C%2FmxCell%3E%3CmxCell%20id%3D%2235%22%20value%3D%22%22%20style%3D%22rounded%3D0%3BwhiteSpace%3Dwrap%3Bhtml%3D1%3B%22%20vertex%3D%221%22%20parent%3D%2233%22%3E%3CmxGeometry%20x%3D%2280%22%20y%3D%22150%22%20width%3D%22170%22%20height%3D%22165%22%20as%3D%22geometry%22%2F%3E%3C%2FmxCell%3E%3CmxCell%20id%3D%2236%22%20value%3D%22DataKit%20ACK%22%20style%3D%22text%3Bhtml%3D1%3Balign%3Dcenter%3BverticalAlign%3Dmiddle%3BwhiteSpace%3Dwrap%3Brounded%3D0%3BfontColor%3D%230000FF%3B%22%20vertex%3D%221%22%20parent%3D%2233%22%3E%3CmxGeometry%20x%3D%2270%22%20y%3D%22150%22%20width%3D%2290%22%20height%3D%2230%22%20as%3D%22geometry%22%2F%3E%3C%2FmxCell%3E%3CmxCell%20id%3D%2237%22%20value%3D%22SalesPortal%20Dev%20DK%22%20style%3D%22rounded%3D0%3BwhiteSpace%3Dwrap%3Bhtml%3D1%3BfillColor%3D%23d5e8d4%3BstrokeColor%3D%2382b366%3B%22%20vertex%3D%221%22%20parent%3D%2233%22%3E%3CmxGeometry%20x%3D%22113%22%20y%3D%22180%22%20width%3D%22120%22%20height%3D%2230%22%20as%3D%22geometry%22%2F%3E%3C%2FmxCell%3E%3CmxCell%20id%3D%2238%22%20value%3D%22SalesPortal%20Dev%20DK%22%20style%3D%22rounded%3D0%3BwhiteSpace%3Dwrap%3Bhtml%3D1%3BfillColor%3D%23d5e8d4%3BstrokeColor%3D%2382b366%3B%22%20vertex%3D%221%22%20parent%3D%2233%22%3E%3CmxGeometry%20x%3D%22112.94000000000005%22%20y%3D%22225%22%20width%3D%22120%22%20height%3D%2230%22%20as%3D%22geometry%22%2F%3E%3C%2FmxCell%3E%3CmxCell%20id%3D%2239%22%20value%3D%22SalesPortal%20Dev%20DK%22%20style%3D%22rounded%3D0%3BwhiteSpace%3Dwrap%3Bhtml%3D1%3BfillColor%3D%23d5e8d4%3BstrokeColor%3D%2382b366%3B%22%20vertex%3D%221%22%20parent%3D%2233%22%3E%3CmxGeometry%20x%3D%22112.94000000000005%22%20y%3D%22270%22%20width%3D%22120%22%20height%3D%2230%22%20as%3D%22geometry%22%2F%3E%3C%2FmxCell%3E%3CmxCell%20id%3D%2240%22%20style%3D%22edgeStyle%3DorthogonalEdgeStyle%3Brounded%3D0%3BorthogonalLoop%3D1%3BjettySize%3Dauto%3Bhtml%3D1%3BentryX%3D1%3BentryY%3D0.5%3BentryDx%3D0%3BentryDy%3D0%3BexitX%3D0.1%3BexitY%3D0.5%3BexitDx%3D0%3BexitDy%3D0%3BexitPerimeter%3D0%3Bcurved%3D1%3B%22%20edge%3D%221%22%20parent%3D%2233%22%20source%3D%2242%22%20target%3D%2234%22%3E%3CmxGeometry%20relative%3D%221%22%20as%3D%22geometry%22%3E%3CArray%20as%3D%22points%22%3E%3CmxPoint%20x%3D%22320%22%20y%3D%22240%22%2F%3E%3CmxPoint%20x%3D%22320%22%20y%3D%2261%22%2F%3E%3C%2FArray%3E%3C%2FmxGeometry%3E%3C%2FmxCell%3E%3CmxCell%20id%3D%2241%22%20value%3D%22https%3A%2F%2Fdataway-internal.guance.kone.cn%22%20style%3D%22edgeLabel%3Balign%3Dcenter%3BverticalAlign%3Dmiddle%3Bresizable%3D0%3Bpoints%3D%5B%5D%3Bhtml%3D1%3B%22%20vertex%3D%221%22%20connectable%3D%220%22%20parent%3D%2240%22%3E%3CmxGeometry%20x%3D%220.0159%22%20y%3D%221%22%20relative%3D%221%22%20as%3D%22geometry%22%3E%3CmxPoint%20x%3D%22-34%22%20y%3D%2269%22%20as%3D%22offset%22%2F%3E%3C%2FmxGeometry%3E%3C%2FmxCell%3E%3CmxCell%20id%3D%2242%22%20value%3D%22%22%20style%3D%22shape%3DcurlyBracket%3BwhiteSpace%3Dwrap%3Bhtml%3D1%3Brounded%3D1%3BflipH%3D1%3BlabelPosition%3Dright%3BverticalLabelPosition%3Dmiddle%3Balign%3Dleft%3BverticalAlign%3Dmiddle%3B%22%20vertex%3D%221%22%20parent%3D%2233%22%3E%3CmxGeometry%20x%3D%22233%22%20y%3D%22180%22%20width%3D%2217%22%20height%3D%22120%22%20as%3D%22geometry%22%2F%3E%3C%2FmxCell%3E%3CmxCell%20id%3D%2243%22%20style%3D%22rounded%3D0%3BorthogonalLoop%3D1%3BjettySize%3Dauto%3Bhtml%3D1%3BentryX%3D0%3BentryY%3D0.5%3BentryDx%3D0%3BentryDy%3D0%3BentryPerimeter%3D0%3BedgeStyle%3DorthogonalEdgeStyle%3Bcurved%3D1%3B%22%20edge%3D%221%22%20source%3D%2221%22%20target%3D%2231%22%20parent%3D%221%22%3E%3CmxGeometry%20relative%3D%221%22%20as%3D%22geometry%22%3E%3CArray%20as%3D%22points%22%3E%3CmxPoint%20x%3D%22690%22%20y%3D%22430%22%2F%3E%3CmxPoint%20x%3D%22690%22%20y%3D%22360%22%2F%3E%3CmxPoint%20x%3D%22918%22%20y%3D%22360%22%2F%3E%3C%2FArray%3E%3C%2FmxGeometry%3E%3C%2FmxCell%3E%3CmxCell%20id%3D%2244%22%20style%3D%22edgeStyle%3DorthogonalEdgeStyle%3Brounded%3D0%3BorthogonalLoop%3D1%3BjettySize%3Dauto%3Bhtml%3D1%3BentryX%3D0%3BentryY%3D0.5%3BentryDx%3D0%3BentryDy%3D0%3BentryPerimeter%3D0%3Bcurved%3D1%3B%22%20edge%3D%221%22%20source%3D%2211%22%20target%3D%2231%22%20parent%3D%221%22%3E%3CmxGeometry%20relative%3D%221%22%20as%3D%22geometry%22%2F%3E%3C%2FmxCell%3E%3CmxCell%20id%3D%2245%22%20value%3D%22https%3A%2F%2Fdataway.guance.kone.cn%22%20style%3D%22edgeLabel%3Bhtml%3D1%3Balign%3Dcenter%3BverticalAlign%3Dmiddle%3Bresizable%3D0%3Bpoints%3D%5B%5D%3B%22%20vertex%3D%221%22%20connectable%3D%220%22%20parent%3D%2244%22%3E%3CmxGeometry%20x%3D%220.093%22%20y%3D%22-2%22%20relative%3D%221%22%20as%3D%22geometry%22%3E%3CmxPoint%20as%3D%22offset%22%2F%3E%3C%2FmxGeometry%3E%3C%2FmxCell%3E%3CmxCell%20id%3D%2246%22%20value%3D%22Web%22%20style%3D%22verticalLabelPosition%3Dbottom%3Baspect%3Dfixed%3Bhtml%3D1%3Bshape%3Dmxgraph.salesforce.web%3B%22%20vertex%3D%221%22%20parent%3D%221%22%3E%3CmxGeometry%20x%3D%22109.91%22%20y%3D%22800%22%20width%3D%2260%22%20height%3D%2247.400000000000006%22%20as%3D%22geometry%22%2F%3E%3C%2FmxCell%3E%3CmxCell%20id%3D%2247%22%20value%3D%22Phone%22%20style%3D%22image%3Baspect%3Dfixed%3Bperimeter%3DellipsePerimeter%3Bhtml%3D1%3Balign%3Dcenter%3Bshadow%3D0%3Bdashed%3D0%3BfontColor%3D%234277BB%3BlabelBackgroundColor%3Ddefault%3BfontSize%3D12%3BspacingTop%3D3%3Bimage%3Dimg%2Flib%2Fibm%2Fanalytics%2Fdevice_analytics.svg%3B%22%20vertex%3D%221%22%20parent%3D%221%22%3E%3CmxGeometry%20x%3D%22249.91%22%20y%3D%22800%22%20width%3D%2260%22%20height%3D%2260%22%20as%3D%22geometry%22%2F%3E%3C%2FmxCell%3E%3CmxCell%20id%3D%2248%22%20value%3D%22%22%20style%3D%22shape%3DcurlyBracket%3BwhiteSpace%3Dwrap%3Bhtml%3D1%3Brounded%3D1%3BflipH%3D1%3BlabelPosition%3Dright%3BverticalLabelPosition%3Dmiddle%3Balign%3Dleft%3BverticalAlign%3Dmiddle%3Brotation%3D-90%3B%22%20vertex%3D%221%22%20parent%3D%221%22%3E%3CmxGeometry%20x%3D%22189.91%22%20y%3D%22690%22%20width%3D%2220%22%20height%3D%22160%22%20as%3D%22geometry%22%2F%3E%3C%2FmxCell%3E%3CmxCell%20id%3D%2249%22%20value%3D%22RUM%22%20style%3D%22text%3Bhtml%3D1%3Balign%3Dcenter%3BverticalAlign%3Dmiddle%3BwhiteSpace%3Dwrap%3Brounded%3D0%3B%22%20vertex%3D%221%22%20parent%3D%221%22%3E%3CmxGeometry%20x%3D%22169.91%22%20y%3D%22740%22%20width%3D%2260%22%20height%3D%2230%22%20as%3D%22geometry%22%2F%3E%3C%2FmxCell%3E%3CmxCell%20id%3D%2250%22%20style%3D%22edgeStyle%3DorthogonalEdgeStyle%3Brounded%3D0%3BorthogonalLoop%3D1%3BjettySize%3Dauto%3Bhtml%3D1%3BentryX%3D0%3BentryY%3D0.5%3BentryDx%3D0%3BentryDy%3D0%3B%22%20edge%3D%221%22%20source%3D%2260%22%20target%3D%2237%22%20parent%3D%221%22%3E%3CmxGeometry%20relative%3D%221%22%20as%3D%22geometry%22%2F%3E%3C%2FmxCell%3E%3CmxCell%20id%3D%2251%22%20style%3D%22edgeStyle%3DorthogonalEdgeStyle%3Brounded%3D0%3BorthogonalLoop%3D1%3BjettySize%3Dauto%3Bhtml%3D1%3BentryX%3D0%3BentryY%3D0.5%3BentryDx%3D0%3BentryDy%3D0%3B%22%20edge%3D%221%22%20source%3D%2260%22%20target%3D%2238%22%20parent%3D%221%22%3E%3CmxGeometry%20relative%3D%221%22%20as%3D%22geometry%22%2F%3E%3C%2FmxCell%3E%3CmxCell%20id%3D%2252%22%20style%3D%22edgeStyle%3DorthogonalEdgeStyle%3Brounded%3D0%3BorthogonalLoop%3D1%3BjettySize%3Dauto%3Bhtml%3D1%3B%22%20edge%3D%221%22%20source%3D%2260%22%20target%3D%2239%22%20parent%3D%221%22%3E%3CmxGeometry%20relative%3D%221%22%20as%3D%22geometry%22%2F%3E%3C%2FmxCell%3E%3CmxCell%20id%3D%2253%22%20style%3D%22edgeStyle%3DorthogonalEdgeStyle%3Brounded%3D0%3BorthogonalLoop%3D1%3BjettySize%3Dauto%3Bhtml%3D1%3BentryX%3D0%3BentryY%3D0.5%3BentryDx%3D0%3BentryDy%3D0%3BentryPerimeter%3D0%3Bcurved%3D1%3B%22%20edge%3D%221%22%20source%3D%2247%22%20target%3D%2260%22%20parent%3D%221%22%3E%3CmxGeometry%20relative%3D%221%22%20as%3D%22geometry%22%3E%3CArray%20as%3D%22points%22%3E%3CmxPoint%20x%3D%22580%22%20y%3D%22830%22%2F%3E%3CmxPoint%20x%3D%22580%22%20y%3D%22596%22%2F%3E%3C%2FArray%3E%3C%2FmxGeometry%3E%3C%2FmxCell%3E%3CmxCell%20id%3D%2254%22%20value%3D%22https%3A%2F%2FSalesPortal-dev.guance.kone.cn%26%2310%3Bhttps%3A%2F%2FSalesPortal-test.guance.kone.cn%26%2310%3Bhttps%3A%2F%2FSalesPortal.guance.kone.cn%26%2310%3B%22%20style%3D%22edgeLabel%3Balign%3Dcenter%3BverticalAlign%3Dmiddle%3Bresizable%3D0%3Bpoints%3D%5B%5D%3Bhorizontal%3D1%3BlabelPosition%3Dcenter%3BverticalLabelPosition%3Dmiddle%3BtextDirection%3Dltr%3B%22%20vertex%3D%221%22%20connectable%3D%220%22%20parent%3D%2253%22%3E%3CmxGeometry%20relative%3D%221%22%20as%3D%22geometry%22%3E%3CmxPoint%20x%3D%22-30%22%20y%3D%2261%22%20as%3D%22offset%22%2F%3E%3C%2FmxGeometry%3E%3C%2FmxCell%3E%3CmxCell%20id%3D%2255%22%20style%3D%22rounded%3D0%3BorthogonalLoop%3D1%3BjettySize%3Dauto%3Bhtml%3D1%3BentryX%3D1%3BentryY%3D0.5%3BentryDx%3D0%3BentryDy%3D0%3BedgeStyle%3DorthogonalEdgeStyle%3BexitX%3D0.96%3BexitY%3D0.65%3BexitDx%3D0%3BexitDy%3D0%3BexitPerimeter%3D0%3Bcurved%3D1%3B%22%20edge%3D%221%22%20source%3D%2257%22%20target%3D%2234%22%20parent%3D%221%22%3E%3CmxGeometry%20relative%3D%221%22%20as%3D%22geometry%22%3E%3CArray%20as%3D%22points%22%3E%3CmxPoint%20x%3D%221130%22%20y%3D%22710%22%2F%3E%3CmxPoint%20x%3D%221360%22%20y%3D%22710%22%2F%3E%3CmxPoint%20x%3D%221360%22%20y%3D%22347%22%2F%3E%3C%2FArray%3E%3C%2FmxGeometry%3E%3C%2FmxCell%3E%3CmxCell%20id%3D%2256%22%20value%3D%22%26lt%3Bspan%20style%3D%26quot%3Bcolor%3A%20rgb(166%2C%20106%2C%2048)%3B%20font-family%3A%20%26amp%3Bquot%3BMicrosoft%20YaHei%26amp%3Bquot%3B%2C%20%E5%BE%AE%E8%BD%AF%E9%9B%85%E9%BB%91%2C%20Arial%3B%20font-size%3A%2013px%3B%20text-wrap%3A%20wrap%3B%20background-color%3A%20rgba(255%2C%20255%2C%20255%2C%200.01)%3B%26quot%3B%26gt%3Bhttps%3A%2F%2Fdataflux.guance.kone.cn%26lt%3B%2Fspan%26gt%3B%22%20style%3D%22edgeLabel%3Bhtml%3D1%3Balign%3Dcenter%3BverticalAlign%3Dmiddle%3Bresizable%3D0%3Bpoints%3D%5B%5D%3B%22%20vertex%3D%221%22%20connectable%3D%220%22%20parent%3D%2255%22%3E%3CmxGeometry%20x%3D%22-0.5615%22%20y%3D%2235%22%20relative%3D%221%22%20as%3D%22geometry%22%3E%3CmxPoint%20x%3D%22-4%22%20y%3D%2280%22%20as%3D%22offset%22%2F%3E%3C%2FmxGeometry%3E%3C%2FmxCell%3E%3CmxCell%20id%3D%2257%22%20value%3D%22%26lt%3Bspan%20style%3D%26quot%3Bcolor%3A%20rgba(0%2C%200%2C%200%2C%200)%3B%20font-family%3A%20monospace%3B%20font-size%3A%200px%3B%20text-align%3A%20start%3B%26quot%3B%26gt%3Bss%26lt%3B%2Fspan%26gt%3B%22%20style%3D%22sketch%3D0%3BpointerEvents%3D1%3Bshadow%3D0%3Bdashed%3D0%3Bhtml%3D1%3BstrokeColor%3Dnone%3BlabelPosition%3Dcenter%3BverticalLabelPosition%3Dbottom%3BverticalAlign%3Dtop%3Balign%3Dcenter%3BfillColor%3D%23505050%3Bshape%3Dmxgraph.mscae.intune.user_group%22%20vertex%3D%221%22%20parent%3D%221%22%3E%3CmxGeometry%20x%3D%221082.18%22%20y%3D%22795%22%20width%3D%2250%22%20height%3D%2237%22%20as%3D%22geometry%22%2F%3E%3C%2FmxCell%3E%3CmxCell%20id%3D%2258%22%20value%3D%22Sales%20Portal%20User%22%20style%3D%22text%3Balign%3Dcenter%3BverticalAlign%3Dmiddle%3Bresizable%3D0%3Bpoints%3D%5B%5D%3Bautosize%3D1%3BstrokeColor%3Dnone%3BfillColor%3Dnone%3B%22%20vertex%3D%221%22%20parent%3D%221%22%3E%3CmxGeometry%20x%3D%221047.18%22%20y%3D%22830%22%20width%3D%22120%22%20height%3D%2230%22%20as%3D%22geometry%22%2F%3E%3C%2FmxCell%3E%3CmxCell%20id%3D%2259%22%20value%3D%22%22%20style%3D%22rounded%3D0%3BorthogonalLoop%3D1%3BjettySize%3Dauto%3Bhtml%3D1%3BedgeStyle%3DorthogonalEdgeStyle%3Bcurved%3D1%3BentryX%3D0%3BentryY%3D0.5%3BentryDx%3D0%3BentryDy%3D0%3BentryPerimeter%3D0%3B%22%20edge%3D%221%22%20target%3D%2260%22%20parent%3D%221%22%3E%3CmxGeometry%20relative%3D%221%22%20as%3D%22geometry%22%3E%3CmxPoint%20x%3D%22180%22%20y%3D%22830%22%20as%3D%22sourcePoint%22%2F%3E%3CmxPoint%20x%3D%22930%22%20y%3D%22600%22%20as%3D%22targetPoint%22%2F%3E%3CArray%20as%3D%22points%22%3E%3CmxPoint%20x%3D%22580%22%20y%3D%22831%22%2F%3E%3CmxPoint%20x%3D%22580%22%20y%3D%22596%22%2F%3E%3C%2FArray%3E%3C%2FmxGeometry%3E%3C%2FmxCell%3E%3CmxCell%20id%3D%2260%22%20value%3D%22WAF%22%20style%3D%22sketch%3D0%3Bpoints%3D%5B%5B0%2C0%2C0%5D%2C%5B0.25%2C0%2C0%5D%2C%5B0.5%2C0%2C0%5D%2C%5B0.75%2C0%2C0%5D%2C%5B1%2C0%2C0%5D%2C%5B0%2C1%2C0%5D%2C%5B0.25%2C1%2C0%5D%2C%5B0.5%2C1%2C0%5D%2C%5B0.75%2C1%2C0%5D%2C%5B1%2C1%2C0%5D%2C%5B0%2C0.25%2C0%5D%2C%5B0%2C0.5%2C0%5D%2C%5B0%2C0.75%2C0%5D%2C%5B1%2C0.25%2C0%5D%2C%5B1%2C0.5%2C0%5D%2C%5B1%2C0.75%2C0%5D%5D%3BoutlineConnect%3D0%3BfontColor%3D%23232F3E%3BfillColor%3D%23DD344C%3BstrokeColor%3D%23ffffff%3Bdashed%3D0%3BverticalLabelPosition%3Dbottom%3BverticalAlign%3Dtop%3Balign%3Dcenter%3Bhtml%3D1%3BfontSize%3D12%3BfontStyle%3D0%3Baspect%3Dfixed%3Bshape%3Dmxgraph.aws4.resourceIcon%3BresIcon%3Dmxgraph.aws4.waf%3B%22%20vertex%3D%221%22%20parent%3D%221%22%3E%3CmxGeometry%20x%3D%22918%22%20y%3D%22572%22%20width%3D%2248%22%20height%3D%2248%22%20as%3D%22geometry%22%2F%3E%3C%2FmxCell%3E%3C%2Froot%3E%3C%2FmxGraphModel%3E&lt;/span&gt;" style="edgeLabel;html=1;align=center;verticalAlign=middle;resizable=0;points=[];" vertex="1" connectable="0" parent="FeuaTyw9u-2rWH6Gll4J-60">
          <mxGeometry x="-0.1765" y="3" relative="1" as="geometry">
            <mxPoint y="2" as="offset" />
          </mxGeometry>
        </mxCell>
        <mxCell id="FeuaTyw9u-2rWH6Gll4J-63" value="https://dataflux.guance.kone.cn/" style="edgeLabel;html=1;align=center;verticalAlign=middle;resizable=0;points=[];" vertex="1" connectable="0" parent="FeuaTyw9u-2rWH6Gll4J-60">
          <mxGeometry x="-0.1907" y="1" relative="1" as="geometry">
            <mxPoint y="2" as="offset" />
          </mxGeometry>
        </mxCell>
        <mxCell id="FeuaTyw9u-2rWH6Gll4J-61" value="" style="group" vertex="1" connectable="0" parent="1">
          <mxGeometry x="1086" y="650" width="90" height="67" as="geometry" />
        </mxCell>
        <mxCell id="FeuaTyw9u-2rWH6Gll4J-56" value="&lt;span style=&quot;color: rgba(0, 0, 0, 0); font-family: monospace; font-size: 0px; text-align: start;&quot;&gt;ss&lt;/span&gt;" style="sketch=0;pointerEvents=1;shadow=0;dashed=0;html=1;strokeColor=none;labelPosition=center;verticalLabelPosition=bottom;verticalAlign=top;align=center;fillColor=#505050;shape=mxgraph.mscae.intune.user_group" vertex="1" parent="FeuaTyw9u-2rWH6Gll4J-61">
          <mxGeometry x="17.819999999999936" width="50" height="37" as="geometry" />
        </mxCell>
        <mxCell id="FeuaTyw9u-2rWH6Gll4J-57" value="ODDB User" style="text;align=center;verticalAlign=middle;resizable=0;points=[];autosize=1;strokeColor=none;fillColor=none;" vertex="1" parent="FeuaTyw9u-2rWH6Gll4J-61">
          <mxGeometry y="37" width="90" height="30" as="geometry" />
        </mxCell>
        <mxCell id="FeuaTyw9u-2rWH6Gll4J-74" style="edgeStyle=orthogonalEdgeStyle;rounded=0;orthogonalLoop=1;jettySize=auto;html=1;" edge="1" parent="1" source="FeuaTyw9u-2rWH6Gll4J-70" target="FeuaTyw9u-2rWH6Gll4J-30">
          <mxGeometry relative="1" as="geometry">
            <Array as="points">
              <mxPoint x="288" y="350" />
            </Array>
          </mxGeometry>
        </mxCell>
        <mxCell id="FeuaTyw9u-2rWH6Gll4J-75" value="https://dataway.guance.kone.cn" style="edgeLabel;html=1;align=center;verticalAlign=middle;resizable=0;points=[];" vertex="1" connectable="0" parent="FeuaTyw9u-2rWH6Gll4J-74">
          <mxGeometry x="0.223" y="-4" relative="1" as="geometry">
            <mxPoint as="offset" />
          </mxGeometry>
        </mxCell>
        <mxCell id="FeuaTyw9u-2rWH6Gll4J-70" value="EC2 instance contents" style="points=[[0,0],[0.25,0],[0.5,0],[0.75,0],[1,0],[1,0.25],[1,0.5],[1,0.75],[1,1],[0.75,1],[0.5,1],[0.25,1],[0,1],[0,0.75],[0,0.5],[0,0.25]];outlineConnect=0;gradientColor=none;html=1;whiteSpace=wrap;fontSize=12;fontStyle=0;container=1;pointerEvents=0;collapsible=0;recursiveResize=0;shape=mxgraph.aws4.group;grIcon=mxgraph.aws4.group_ec2_instance_contents;strokeColor=#D86613;fillColor=none;verticalAlign=top;align=left;spacingLeft=30;fontColor=#D86613;dashed=0;" vertex="1" parent="1">
          <mxGeometry x="115" y="390" width="345" height="170" as="geometry" />
        </mxCell>
        <mxCell id="FeuaTyw9u-2rWH6Gll4J-69" value="" style="outlineConnect=0;dashed=0;verticalLabelPosition=bottom;verticalAlign=top;align=center;html=1;shape=mxgraph.aws3.ecs;fillColor=#F58534;gradientColor=none;" vertex="1" parent="FeuaTyw9u-2rWH6Gll4J-70">
          <mxGeometry x="23" y="190.45000000000005" width="22" height="17.5" as="geometry" />
        </mxCell>
        <mxCell id="FeuaTyw9u-2rWH6Gll4J-71" value="ECS" style="outlineConnect=0;dashed=0;verticalLabelPosition=bottom;verticalAlign=top;align=center;html=1;shape=mxgraph.aws3.ecs;fillColor=#F58534;gradientColor=none;" vertex="1" parent="FeuaTyw9u-2rWH6Gll4J-70">
          <mxGeometry x="13" y="38.660000000000025" width="42" height="37.5" as="geometry" />
        </mxCell>
      </root>
    </mxGraphModel>
  </diagram>
</mxfile>
